<svg width="1468" height="296" viewBox="0 0 1468 296" fill="none" xmlns="http://www.w3.org/2000/svg">
<path d="M196.297 5.20508C219.474 5.20508 238.106 10.8214 252.19 22.0538C267.256 33.6428 274.833 50.2237 274.833 71.7079C274.833 74.7389 274.655 77.8593 274.209 81.1577L258.876 227.535C256.915 246.434 251.299 262.57 241.939 275.942C232.579 289.313 222.327 295.999 211.184 295.999C201.378 295.999 193.266 290.651 186.936 279.864C180.518 269.077 177.398 255.616 177.398 239.303C177.398 235.38 177.576 231.369 178.022 227.357L190.948 102.018C191.126 100.057 191.215 98.0061 191.215 96.0449C191.215 85.0799 188.452 76.0761 183.014 68.9444C177.487 61.8128 170.445 58.2471 161.798 58.2471H132.915C123.465 58.2471 115.086 62.5259 107.598 70.9057C100.11 79.3745 95.8306 89.7157 94.6717 102.018L81.4783 227.357C79.5171 246.256 73.901 262.392 64.5408 275.853C55.1806 289.224 44.9289 295.999 33.7858 295.999C23.9799 295.999 15.8678 290.651 9.53849 279.864C3.12007 269.077 0 255.616 0 239.392C0 235.469 0.178289 231.458 0.624013 227.446L15.9569 81.0684C18.5421 56.999 28.7937 38.1001 46.8901 24.5499C63.9168 11.6237 84.9549 5.20508 109.915 5.20508H196.475H196.297ZM141.294 118.331C149.763 118.331 156.627 122.967 162.065 132.238C167.503 141.509 170.177 152.92 170.177 166.47C170.177 184.299 165.987 200.257 157.697 214.163C149.317 228.07 139.779 235.024 128.992 235.024C120.524 235.024 113.66 230.477 108.222 221.384C102.784 212.291 100.11 200.792 100.11 186.885C100.11 168.966 104.299 153.098 112.59 139.192C120.969 125.285 130.508 118.331 141.294 118.331Z" fill="#0038ED"/>
<path d="M505.985 59.7627C529.163 59.7627 547.794 65.379 561.879 76.6114C576.945 88.2004 584.522 104.692 584.522 126.087C584.522 129.118 584.344 132.149 583.898 135.537L575.697 214.788C573.111 238.857 562.771 257.756 544.496 271.217C527.648 284.143 506.699 290.562 481.827 290.562H342.851C320.297 290.562 310.224 280.132 312.541 259.272L332.242 69.2121C334.204 50.3132 339.82 34.1778 349.18 20.8059C358.54 7.434 368.792 0.748047 379.935 0.748047C390.097 0.748047 398.388 6.36428 404.806 17.775C411.135 29.0965 414.166 43.1816 413.81 59.8519H505.985V59.7627ZM495.645 206.051L502.152 144.273C504.292 123.324 494.129 112.894 471.576 112.894H424.775C420.406 112.894 416.484 115.479 412.829 120.65C409.174 125.82 407.035 132.06 406.232 139.37L398.566 211.133C397.942 218.443 398.923 224.683 401.33 229.853C403.736 235.024 407.302 237.609 411.759 237.609H458.56C480.936 237.609 493.327 227.179 495.645 206.23V206.051Z" fill="#0038ED"/>
<path d="M802.748 59.7637C826.104 59.7637 844.735 65.38 858.642 76.6124C873.797 88.2014 881.285 104.693 881.285 126.088C881.285 129.119 881.196 132.15 881.017 135.538L872.459 214.789C870.142 238.858 859.801 257.757 841.526 271.218C824.678 284.144 803.64 290.563 778.501 290.563H691.941C668.764 290.563 650.132 284.947 636.048 273.714C620.893 262.125 613.405 245.633 613.405 224.238C613.405 221.296 613.583 218.176 614.029 214.789L622.319 135.538C624.815 111.468 635.245 92.4804 653.52 78.5736C670.368 66.004 691.317 59.7637 716.189 59.7637H802.748ZM793.655 193.572L797.756 156.755C797.934 154.704 798.023 152.743 798.023 150.693C798.023 139.728 795.26 130.724 789.644 123.592C784.028 116.461 777.075 112.895 768.606 112.895H739.455C730.274 112.895 721.894 117.174 714.406 125.643C706.918 134.112 702.55 144.452 701.123 156.755L697.29 193.572C697.112 195.622 697.023 197.583 697.023 199.634C697.023 210.599 699.786 219.603 705.402 226.734C711.018 233.866 717.972 237.432 726.44 237.432H755.591C764.773 237.432 773.152 233.153 780.64 224.773C788.128 216.304 792.407 205.874 793.566 193.572H793.655Z" fill="#0038ED"/>
<path d="M984.336 53.791C994.32 53.791 1002.52 59.1398 1008.94 69.9264C1015.27 80.7131 1018.48 94.2632 1018.48 110.488C1018.48 114.499 1018.3 118.422 1017.85 122.433L1010.19 193.572C1010.01 195.533 1009.92 197.584 1009.92 199.545C1009.92 210.51 1012.68 219.513 1018.3 226.645C1023.92 233.777 1030.87 237.343 1039.34 237.343H1086.41C1090.69 237.343 1094.7 234.757 1098.35 229.587C1102.01 224.417 1104.15 218.265 1104.95 210.956L1114.04 122.433C1116 103.534 1121.62 87.3097 1130.98 73.9378C1140.34 60.4768 1150.59 53.791 1161.73 53.791C1171.72 53.791 1179.92 59.1398 1186.34 69.9264C1192.67 80.7131 1195.88 94.1741 1195.88 110.31C1195.88 114.321 1195.7 118.244 1195.25 122.255L1180.81 259.273C1178.67 280.133 1166.37 290.563 1143.99 290.563H1005.11C981.929 290.563 963.298 284.947 949.213 273.714C934.058 262.125 926.57 245.633 926.57 224.06C926.57 221.118 926.659 217.998 926.838 214.61L936.554 122.255C938.516 103.356 944.132 87.3099 953.492 73.8489C962.852 60.477 973.104 53.791 984.247 53.791H984.336Z" fill="#0038ED"/>
<path d="M1435.32 237.43C1439.6 237.43 1443.07 240.015 1445.66 245.186C1448.25 250.356 1449.14 256.507 1448.33 263.728C1447.53 271.395 1445.3 277.724 1441.74 282.894C1438.08 288.065 1434.16 290.561 1429.79 290.561H1350.63C1327.45 290.561 1308.82 285.123 1294.74 274.158C1279.58 262.302 1272.1 245.721 1272.1 224.593C1272.1 221.295 1272.27 217.996 1272.72 214.698L1283.86 107.544H1260.6C1256.32 107.544 1252.84 104.87 1250.25 99.6102C1247.67 94.3506 1246.78 88.0213 1247.58 80.7113C1248.38 73.4013 1250.52 67.2503 1254.18 62.0798C1257.83 56.9093 1261.75 54.4134 1266.12 54.4134H1290.28C1294.02 38.5454 1300.09 25.5298 1308.56 15.4563C1317.02 5.38282 1326.03 0.390625 1335.66 0.390625C1345.28 0.390625 1353.31 5.47197 1359.64 15.4563C1365.96 25.5298 1369.44 38.5454 1369.8 54.4134H1454.57C1458.85 54.4134 1462.33 56.9985 1464.92 62.0798C1467.5 67.1611 1468.3 73.4013 1467.59 80.7113C1466.97 88.0213 1464.92 94.2614 1461.26 99.6102C1457.61 104.87 1453.5 107.544 1449.05 107.544H1365.16L1356.07 193.927C1355.89 195.888 1355.8 197.849 1355.8 199.899C1355.8 210.508 1358.57 219.423 1364.18 226.733C1369.8 234.043 1376.75 237.608 1385.22 237.608H1435.59L1435.32 237.43Z" fill="#0038ED"/>
</svg>
