<svg width="2397" height="296" viewBox="0 0 2397 296" fill="none" xmlns="http://www.w3.org/2000/svg">
<path d="M197.176 4.90234C220.354 4.90234 238.985 10.5185 253.07 21.7509C268.135 33.3399 275.712 49.9211 275.712 71.4053C275.712 74.4362 275.534 77.5564 275.088 80.8548L259.756 227.233C257.794 246.132 252.178 262.267 242.818 275.639C233.458 289.011 223.206 295.697 212.063 295.697C202.257 295.697 194.145 290.348 187.816 279.561C181.397 268.775 178.277 255.314 178.277 239C178.277 235.077 178.456 231.066 178.901 227.054L191.827 101.715C192.006 99.7537 192.095 97.7034 192.095 95.7421C192.095 84.7772 189.331 75.7734 183.893 68.6418C178.366 61.5101 171.324 57.9442 162.677 57.9442H133.794C124.345 57.9442 115.965 62.2232 108.477 70.603C100.989 79.0718 96.7098 89.4128 95.551 101.715L82.3575 227.054C80.3964 245.953 74.7802 262.089 65.42 275.55C56.0599 288.922 45.8082 295.697 34.6651 295.697C24.8592 295.697 16.747 290.348 10.4178 279.561C3.99934 268.775 0.879272 255.314 0.879272 239.089C0.879272 235.167 1.05756 231.155 1.50328 227.143L16.8362 80.7656C19.4214 56.6962 29.673 37.7972 47.7694 24.247C64.796 11.3209 85.8342 4.90234 110.795 4.90234H197.354H197.176ZM142.174 118.029C150.642 118.029 157.507 122.664 162.944 131.935C168.382 141.207 171.057 152.617 171.057 166.168C171.057 183.997 166.867 199.954 158.576 213.861C150.197 227.767 140.658 234.721 129.872 234.721C121.403 234.721 114.539 230.174 109.101 221.081C103.663 211.989 100.989 200.489 100.989 186.582C100.989 168.664 105.179 152.796 113.469 138.889C121.849 124.982 131.387 118.029 142.174 118.029Z" fill="#0038ED"/>
<path d="M513.907 237.217C518.186 237.217 521.663 239.802 524.248 244.973C526.833 250.143 527.725 256.294 526.922 263.515C526.12 271.182 523.891 277.511 520.326 282.682C516.671 287.852 512.748 290.348 508.38 290.348H429.22C406.042 290.348 387.411 284.91 373.326 273.945C358.171 262.089 350.683 245.508 350.683 224.38C350.683 221.082 350.861 217.783 351.307 214.485L362.45 107.331H339.183C334.905 107.331 331.428 104.657 328.843 99.3973C326.257 94.1377 325.366 87.8083 326.168 80.4983C326.971 73.1883 329.11 67.0373 332.765 61.8668C336.42 56.6963 340.342 54.2002 344.71 54.2002H368.869C372.613 38.3322 378.675 25.3169 387.143 15.2434C395.612 5.16991 404.616 0.177734 414.243 0.177734C423.871 0.177734 431.894 5.25906 438.223 15.2434C444.553 25.3169 448.029 38.3322 448.386 54.2002H533.162C537.441 54.2002 540.918 56.7855 543.503 61.8668C546.088 66.9481 546.891 73.1883 546.177 80.4983C545.553 87.8083 543.503 94.0485 539.848 99.3973C536.193 104.657 532.093 107.331 527.635 107.331H443.75L434.657 193.714C434.479 195.675 434.39 197.636 434.39 199.687C434.39 210.295 437.153 219.21 442.77 226.52C448.386 233.83 455.339 237.395 463.808 237.395H514.175L513.907 237.217Z" fill="#0038ED"/>
<path d="M773.229 237.217C777.508 237.217 780.985 239.802 783.57 244.973C786.155 250.143 787.047 256.294 786.244 263.515C785.442 271.182 783.213 277.511 779.648 282.682C775.993 287.852 772.07 290.348 767.702 290.348H688.542C665.364 290.348 646.733 284.91 632.648 273.945C617.493 262.089 610.005 245.508 610.005 224.38C610.005 221.082 610.183 217.783 610.629 214.485L621.772 107.331H598.505C594.227 107.331 590.75 104.657 588.165 99.3973C585.58 94.1377 584.688 87.8083 585.49 80.4983C586.293 73.1883 588.432 67.0373 592.087 61.8668C595.742 56.6963 599.664 54.2002 604.032 54.2002H628.191C631.935 38.3322 637.997 25.3169 646.465 15.2434C654.934 5.16991 663.938 0.177734 673.565 0.177734C683.193 0.177734 691.216 5.25906 697.545 15.2434C703.875 25.3169 707.351 38.3322 707.708 54.2002H792.484C796.763 54.2002 800.24 56.7855 802.825 61.8668C805.41 66.9481 806.213 73.1883 805.5 80.4983C804.875 87.8083 802.825 94.0485 799.17 99.3973C795.515 104.657 791.415 107.331 786.957 107.331H703.072L693.98 193.714C693.801 195.675 693.712 197.636 693.712 199.687C693.712 210.295 696.476 219.21 702.092 226.52C707.708 233.83 714.661 237.395 723.13 237.395H773.497L773.229 237.217Z" fill="#0038ED"/>
<path d="M1051.45 237.663C1055.73 237.663 1059.21 240.248 1061.79 245.418C1064.29 250.589 1065.18 256.918 1064.46 264.496C1063.66 271.806 1061.43 277.957 1057.87 283.127C1054.3 288.298 1050.29 290.794 1045.92 290.794H898.477C875.121 290.794 856.401 285.356 842.227 274.48C827.073 262.534 819.584 246.131 819.584 224.915C819.584 221.973 819.763 218.853 820.208 215.554L828.766 135.323C831.262 111.254 841.603 92.2654 859.699 78.3586C876.726 65.7891 897.764 59.5488 922.725 59.5488H1009.28C1032.46 59.5488 1051.09 65.165 1065.18 76.3974C1080.33 87.8973 1087.82 104.389 1087.82 125.873C1087.82 128.904 1087.64 131.935 1087.2 135.323C1084.61 159.392 1074.27 178.202 1056 191.663C1039.15 204.144 1018.2 210.473 993.327 210.473H904.45C908.372 228.659 917.822 237.752 932.709 237.752H1051.63L1051.45 237.663ZM945.813 112.591C936.364 112.591 927.984 116.781 920.496 125.249C913.008 133.718 908.729 144.059 907.57 156.272L907.303 157.253H987.979C998.587 157.253 1004.65 149.765 1006.25 134.877C1007.86 119.99 1003.31 112.502 992.703 112.502H945.902L945.813 112.591Z" fill="#0038ED"/>
<path d="M1321.11 59.5501C1344.29 59.5501 1362.92 65.1663 1377.01 76.3987C1392.16 87.9877 1399.65 104.48 1399.65 125.875C1399.65 128.906 1399.47 131.937 1399.03 135.324L1390.2 221.974C1388.24 240.784 1382.62 256.83 1373.26 270.202C1363.9 283.574 1353.65 290.26 1342.51 290.26C1332.52 290.26 1324.32 284.911 1317.9 274.125C1311.48 263.338 1308.36 249.877 1308.36 233.652C1308.36 229.73 1308.54 225.718 1308.99 221.707L1315.76 156.184C1315.94 154.223 1316.03 152.262 1316.03 150.212C1316.03 139.247 1313.27 130.243 1307.83 123.111C1302.3 115.98 1295.35 112.414 1286.97 112.414H1239.9C1235.53 112.414 1231.61 114.999 1227.96 120.08C1224.3 125.251 1222.07 131.402 1221.36 138.712L1212.8 221.618C1210.84 240.517 1205.22 256.652 1195.86 270.024C1186.5 283.396 1176.25 290.171 1165.11 290.171C1155.13 290.171 1146.92 284.822 1140.51 274.125C1134.18 263.338 1130.97 249.966 1130.97 233.741C1130.97 229.819 1131.15 225.807 1131.59 221.885L1145.41 90.6621C1147.55 69.891 1159.85 59.4609 1182.23 59.4609H1321.2L1321.11 59.5501Z" fill="#0038ED"/>
<path d="M1630.18 237.217C1634.46 237.217 1637.93 239.802 1640.52 244.973C1643.1 250.143 1643.99 256.294 1643.19 263.515C1642.39 271.182 1640.16 277.511 1636.6 282.682C1632.94 287.852 1629.02 290.348 1624.65 290.348H1545.49C1522.31 290.348 1503.68 284.91 1489.6 273.945C1474.44 262.089 1466.95 245.508 1466.95 224.38C1466.95 221.082 1467.13 217.783 1467.58 214.485L1478.72 107.331H1455.45C1451.17 107.331 1447.7 104.657 1445.11 99.3973C1442.53 94.1377 1441.64 87.8083 1442.44 80.4983C1443.24 73.1883 1445.38 67.0373 1449.04 61.8668C1452.69 56.6963 1456.61 54.2002 1460.98 54.2002H1485.14C1488.88 38.3322 1494.94 25.3169 1503.41 15.2434C1511.88 5.16991 1520.89 0.177734 1530.51 0.177734C1540.14 0.177734 1548.16 5.25906 1554.49 15.2434C1560.82 25.3169 1564.3 38.3322 1564.66 54.2002H1649.43C1653.71 54.2002 1657.19 56.7855 1659.77 61.8668C1662.36 66.9481 1663.16 73.1883 1662.45 80.4983C1661.82 87.8083 1659.77 94.0485 1656.12 99.3973C1652.46 104.657 1648.36 107.331 1643.91 107.331H1560.02L1550.93 193.714C1550.75 195.675 1550.66 197.636 1550.66 199.687C1550.66 210.295 1553.42 219.21 1559.04 226.52C1564.66 233.83 1571.61 237.395 1580.08 237.395H1630.44L1630.18 237.217Z" fill="#0038ED"/>
<path d="M1739.65 123.556C1749.45 123.556 1757.56 128.815 1763.89 139.424C1770.22 150.032 1773.43 163.404 1773.43 179.629C1773.43 183.551 1773.25 187.563 1772.81 191.574L1769.24 227.233C1767.1 246.132 1761.4 262.267 1752.22 275.639C1743.03 289.011 1732.69 295.697 1721.28 295.697C1711.48 295.697 1703.36 290.348 1697.04 279.561C1690.62 268.775 1687.5 255.314 1687.5 239.089C1687.5 235.167 1687.68 231.155 1688.12 227.144L1691.95 191.485C1693.92 172.586 1699.53 156.54 1708.89 143.346C1718.25 130.064 1728.5 123.467 1739.65 123.467V123.556ZM1742.59 94.7617C1732.16 94.7617 1723.51 90.7501 1716.65 82.8161C1709.78 74.8821 1706.31 65.0761 1706.31 53.5762C1706.31 37.7082 1711.83 24.6038 1722.8 14.352C1731.98 5.79394 1741.88 1.42578 1752.22 1.42578C1762.56 1.42578 1770.94 5.43735 1777.8 13.3714C1784.66 21.3053 1788.14 31.1114 1788.14 42.6113C1788.14 58.4793 1782.61 71.5837 1771.65 81.8355C1762.47 90.3935 1752.75 94.7617 1742.5 94.7617H1742.59Z" fill="#0038ED"/>
<path d="M2004.32 59.5488C2027.67 59.5488 2046.3 65.165 2060.21 76.3974C2075.37 87.9864 2082.85 104.478 2082.85 125.873C2082.85 128.904 2082.76 131.935 2082.59 135.323L2074.03 214.574C2071.71 238.643 2061.37 257.542 2043.1 271.003C2026.25 283.929 2005.21 290.348 1980.07 290.348H1893.51C1870.33 290.348 1851.7 284.732 1837.62 273.499C1822.46 261.91 1814.97 245.418 1814.97 224.023C1814.97 221.081 1815.15 217.961 1815.6 214.574L1823.89 135.323C1826.38 111.254 1836.81 92.2654 1855.09 78.3586C1871.94 65.7891 1892.89 59.5488 1917.76 59.5488H2004.32ZM1995.22 193.357L1999.33 156.54C1999.5 154.489 1999.59 152.528 1999.59 150.478C1999.59 139.513 1996.83 130.509 1991.21 123.377C1985.6 116.246 1978.64 112.68 1970.18 112.68H1941.02C1931.84 112.68 1923.46 116.959 1915.98 125.428C1908.49 133.897 1904.12 144.238 1902.69 156.54L1898.86 193.357C1898.68 195.407 1898.59 197.369 1898.59 199.419C1898.59 210.384 1901.36 219.388 1906.97 226.519C1912.59 233.651 1919.54 237.217 1928.01 237.217H1957.16C1966.34 237.217 1974.72 232.938 1982.21 224.558C1989.7 216.089 1993.98 205.659 1995.14 193.357H1995.22Z" fill="#0038ED"/>
<path d="M2318.37 59.5501C2341.55 59.5501 2360.18 65.1663 2374.27 76.3987C2389.42 87.9877 2396.91 104.48 2396.91 125.875C2396.91 128.906 2396.73 131.937 2396.29 135.324L2387.46 221.974C2385.5 240.784 2379.88 256.83 2370.52 270.202C2361.16 283.574 2350.91 290.26 2339.77 290.26C2329.79 290.26 2321.58 284.911 2315.17 274.125C2308.75 263.338 2305.63 249.877 2305.63 233.652C2305.63 229.73 2305.81 225.718 2306.25 221.707L2313.03 156.184C2313.2 154.223 2313.29 152.262 2313.29 150.212C2313.29 139.247 2310.53 130.243 2305.09 123.111C2299.57 115.98 2292.61 112.414 2284.23 112.414H2237.16C2232.8 112.414 2228.87 114.999 2225.22 120.08C2221.56 125.251 2219.33 131.402 2218.62 138.712L2210.06 221.618C2208.1 240.517 2202.49 256.652 2193.13 270.024C2183.77 283.396 2173.51 290.171 2162.37 290.171C2152.39 290.171 2144.19 284.822 2137.77 274.125C2131.44 263.338 2128.23 249.966 2128.23 233.741C2128.23 229.819 2128.41 225.807 2128.85 221.885L2142.67 90.6621C2144.81 69.891 2157.11 59.4609 2179.49 59.4609H2318.46L2318.37 59.5501Z" fill="#0038ED"/>
</svg>
