<svg width="517" height="78" viewBox="0 0 517 78" fill="none" xmlns="http://www.w3.org/2000/svg">
<path d="M0.174291 77L28.4943 6.92H46.7343L52.9743 77H38.6703L37.8063 61.16H21.1023L15.2463 77H0.174291ZM25.3263 49.64H37.1343L36.4623 32.744C36.3983 30.312 36.2703 27.912 36.0783 25.544C35.9503 23.112 35.8543 21.224 35.7903 19.88C35.3423 21.224 34.7343 23.08 33.9663 25.448C33.2623 27.816 32.4623 30.216 31.5663 32.648L25.3263 49.64ZM89.8968 77C84.5208 77 80.5528 75.464 77.9928 72.392C75.4328 69.32 74.5688 65.096 75.4008 59.72L78.9528 37.16H65.0328L67.0488 24.2H80.9688L83.2728 9.8H97.6728L95.3688 24.2H115.049L113.033 37.16H93.3528L89.8008 59.72C89.2888 62.6 90.4728 64.04 93.3528 64.04H107.753L105.737 77H89.8968ZM147.459 77C142.083 77 138.115 75.464 135.555 72.392C132.995 69.32 132.131 65.096 132.963 59.72L136.515 37.16H122.595L124.611 24.2H138.531L140.835 9.8H155.235L152.931 24.2H172.611L170.595 37.16H150.915L147.363 59.72C146.851 62.6 148.035 64.04 150.915 64.04H165.315L163.299 77H147.459ZM199.166 77.96C194.494 77.96 190.558 77.096 187.358 75.368C184.158 73.576 181.854 71.112 180.446 67.976C179.102 64.776 178.75 61.064 179.39 56.84L181.406 44.36C182.11 40.136 183.646 36.456 186.014 33.32C188.446 30.12 191.518 27.656 195.23 25.928C199.006 24.136 203.23 23.24 207.902 23.24C212.574 23.24 216.478 24.136 219.614 25.928C222.814 27.656 225.086 30.12 226.43 33.32C227.838 36.456 228.19 40.136 227.486 44.36L225.95 53.96H193.598L193.118 56.84C192.606 60.168 193.022 62.696 194.366 64.424C195.71 66.088 197.982 66.92 201.182 66.92C203.422 66.92 205.278 66.536 206.75 65.768C208.286 65 209.374 63.944 210.014 62.6H224.126C222.91 65.672 221.054 68.36 218.558 70.664C216.062 72.968 213.15 74.76 209.822 76.04C206.558 77.32 203.006 77.96 199.166 77.96ZM213.374 46.568L213.758 44.168C214.27 40.904 213.918 38.408 212.702 36.68C211.486 34.952 209.31 34.088 206.174 34.088C203.038 34.088 200.542 34.984 198.686 36.776C196.83 38.568 195.646 41.096 195.134 44.36L194.846 45.8L214.526 45.608L213.374 46.568ZM234.36 77L242.712 24.2H256.632L255 34.28H259.224L254.52 37.64C255.224 33.16 257.048 29.64 259.992 27.08C263 24.52 266.68 23.24 271.032 23.24C276.152 23.24 279.96 25.032 282.456 28.616C285.016 32.2 285.816 36.968 284.856 42.92L279.48 77H265.08L270.264 44.36C270.712 41.608 270.328 39.496 269.112 38.024C267.896 36.488 265.976 35.72 263.352 35.72C260.792 35.72 258.68 36.488 257.016 38.024C255.416 39.496 254.392 41.608 253.944 44.36L248.76 77H234.36ZM320.147 77C314.771 77 310.803 75.464 308.243 72.392C305.683 69.32 304.819 65.096 305.651 59.72L309.203 37.16H295.283L297.299 24.2H311.219L313.523 9.8H327.923L325.619 24.2H345.299L343.283 37.16H323.603L320.051 59.72C319.539 62.6 320.723 64.04 323.603 64.04H338.003L335.987 77H320.147ZM349.869 77L351.981 63.944H370.221L374.445 37.16H358.605L360.621 24.2H389.901L383.661 63.944H399.021L396.909 77H349.869ZM383.565 15.848C380.941 15.848 378.957 15.176 377.613 13.832C376.269 12.488 375.757 10.664 376.077 8.36C376.461 6.056 377.549 4.232 379.341 2.888C381.133 1.544 383.341 0.871996 385.965 0.871996C388.589 0.871996 390.573 1.544 391.917 2.888C393.261 4.232 393.741 6.056 393.357 8.36C393.037 10.664 391.981 12.488 390.189 13.832C388.397 15.176 386.189 15.848 383.565 15.848ZM429.32 77.96C424.648 77.96 420.712 77.096 417.512 75.368C414.376 73.576 412.104 71.112 410.696 67.976C409.352 64.776 409 61.064 409.64 56.84L411.656 44.36C412.36 40.136 413.896 36.456 416.264 33.32C418.632 30.12 421.672 27.656 425.384 25.928C429.16 24.136 433.384 23.24 438.056 23.24C442.792 23.24 446.728 24.136 449.864 25.928C453.064 27.656 455.336 30.12 456.68 33.32C458.088 36.456 458.44 40.136 457.736 44.36L455.72 56.84C455.08 61.064 453.544 64.776 451.112 67.976C448.744 71.112 445.704 73.576 441.992 75.368C438.28 77.096 434.056 77.96 429.32 77.96ZM431.336 65.48C434.152 65.48 436.392 64.744 438.056 63.272C439.784 61.736 440.872 59.592 441.32 56.84L443.336 44.36C443.784 41.544 443.368 39.4 442.088 37.928C440.872 36.456 438.856 35.72 436.04 35.72C433.288 35.72 431.048 36.456 429.32 37.928C427.592 39.4 426.504 41.544 426.056 44.36L424.04 56.84C423.592 59.592 424.008 61.736 425.288 63.272C426.568 64.744 428.584 65.48 431.336 65.48ZM464.61 77L472.962 24.2H486.882L485.25 34.28H489.474L484.77 37.64C485.474 33.16 487.298 29.64 490.242 27.08C493.25 24.52 496.93 23.24 501.282 23.24C506.402 23.24 510.21 25.032 512.706 28.616C515.266 32.2 516.066 36.968 515.106 42.92L509.73 77H495.33L500.514 44.36C500.962 41.608 500.578 39.496 499.362 38.024C498.146 36.488 496.226 35.72 493.602 35.72C491.042 35.72 488.93 36.488 487.266 38.024C485.666 39.496 484.642 41.608 484.194 44.36L479.01 77H464.61Z" fill="#0C39D0"/>
</svg>
