<svg width="339" height="78" viewBox="0 0 339 78" fill="none" xmlns="http://www.w3.org/2000/svg">
<path d="M21.768 77.96C17.096 77.96 13.128 77.096 9.864 75.368C6.6 73.576 4.264 71.112 2.856 67.976C1.448 64.776 1.064 61.064 1.704 56.84L6.408 27.08C7.112 22.792 8.68 19.08 11.112 15.944C13.544 12.808 16.648 10.376 20.424 8.648C24.264 6.856 28.52 5.96 33.192 5.96C37.928 5.96 41.896 6.856 45.096 8.648C48.296 10.376 50.632 12.808 52.104 15.944C53.576 19.08 53.96 22.792 53.256 27.08H38.856C39.368 24.264 38.952 22.12 37.608 20.648C36.264 19.176 34.152 18.44 31.272 18.44C28.392 18.44 26.056 19.176 24.264 20.648C22.472 22.12 21.32 24.264 20.808 27.08L16.104 56.84C15.656 59.592 16.104 61.736 17.448 63.272C18.792 64.744 20.904 65.48 23.784 65.48C26.664 65.48 29 64.744 30.792 63.272C32.584 61.736 33.704 59.592 34.152 56.84H48.552C47.912 61.064 46.344 64.776 43.848 67.976C41.416 71.112 38.312 73.576 34.536 75.368C30.76 77.096 26.504 77.96 21.768 77.96ZM78.9465 77.96C74.2745 77.96 70.3385 77.096 67.1385 75.368C64.0025 73.576 61.7305 71.112 60.3225 67.976C58.9785 64.776 58.6265 61.064 59.2665 56.84L61.2825 44.36C61.9865 40.136 63.5225 36.456 65.8905 33.32C68.2585 30.12 71.2985 27.656 75.0105 25.928C78.7865 24.136 83.0105 23.24 87.6825 23.24C92.4185 23.24 96.3545 24.136 99.4905 25.928C102.691 27.656 104.963 30.12 106.307 33.32C107.715 36.456 108.067 40.136 107.363 44.36L105.347 56.84C104.707 61.064 103.171 64.776 100.739 67.976C98.3705 71.112 95.3305 73.576 91.6185 75.368C87.9065 77.096 83.6825 77.96 78.9465 77.96ZM80.9625 65.48C83.7785 65.48 86.0185 64.744 87.6825 63.272C89.4105 61.736 90.4985 59.592 90.9465 56.84L92.9625 44.36C93.4105 41.544 92.9945 39.4 91.7145 37.928C90.4985 36.456 88.4825 35.72 85.6665 35.72C82.9145 35.72 80.6745 36.456 78.9465 37.928C77.2185 39.4 76.1305 41.544 75.6825 44.36L73.6665 56.84C73.2185 59.592 73.6345 61.736 74.9145 63.272C76.1945 64.744 78.2105 65.48 80.9625 65.48ZM136.509 77.96C131.837 77.96 127.901 77.096 124.701 75.368C121.565 73.576 119.293 71.112 117.885 67.976C116.541 64.776 116.189 61.064 116.829 56.84L118.845 44.36C119.549 40.136 121.085 36.456 123.453 33.32C125.821 30.12 128.861 27.656 132.573 25.928C136.349 24.136 140.573 23.24 145.245 23.24C149.981 23.24 153.917 24.136 157.053 25.928C160.253 27.656 162.525 30.12 163.869 33.32C165.277 36.456 165.629 40.136 164.925 44.36L162.909 56.84C162.269 61.064 160.733 64.776 158.301 67.976C155.933 71.112 152.893 73.576 149.181 75.368C145.469 77.096 141.245 77.96 136.509 77.96ZM138.525 65.48C141.341 65.48 143.581 64.744 145.245 63.272C146.973 61.736 148.061 59.592 148.509 56.84L150.525 44.36C150.973 41.544 150.557 39.4 149.277 37.928C148.061 36.456 146.045 35.72 143.229 35.72C140.477 35.72 138.237 36.456 136.509 37.928C134.781 39.4 133.693 41.544 133.245 44.36L131.229 56.84C130.781 59.592 131.197 61.736 132.477 63.272C133.757 64.744 135.773 65.48 138.525 65.48ZM172.088 77L183.224 6.92H197.624L191.672 44.168H198.488L212.696 24.2H229.016L210.008 50.696L220.952 77H205.304L197.24 56.264H189.752L186.488 77H172.088ZM229.746 77L231.858 63.944H250.098L254.322 37.16H238.482L240.498 24.2H269.778L263.538 63.944H278.898L276.786 77H229.746ZM263.442 15.848C260.818 15.848 258.834 15.176 257.49 13.832C256.146 12.488 255.634 10.664 255.954 8.36C256.338 6.056 257.426 4.232 259.218 2.888C261.01 1.544 263.218 0.871996 265.842 0.871996C268.466 0.871996 270.45 1.544 271.794 2.888C273.138 4.232 273.618 6.056 273.234 8.36C272.914 10.664 271.858 12.488 270.066 13.832C268.274 15.176 266.066 15.848 263.442 15.848ZM309.293 77.96C304.621 77.96 300.685 77.096 297.484 75.368C294.285 73.576 291.981 71.112 290.573 67.976C289.229 64.776 288.877 61.064 289.517 56.84L291.533 44.36C292.237 40.136 293.773 36.456 296.141 33.32C298.573 30.12 301.645 27.656 305.357 25.928C309.133 24.136 313.357 23.24 318.029 23.24C322.701 23.24 326.605 24.136 329.741 25.928C332.941 27.656 335.213 30.12 336.557 33.32C337.965 36.456 338.317 40.136 337.613 44.36L336.077 53.96H303.725L303.245 56.84C302.733 60.168 303.149 62.696 304.493 64.424C305.837 66.088 308.109 66.92 311.309 66.92C313.549 66.92 315.405 66.536 316.877 65.768C318.413 65 319.501 63.944 320.141 62.6H334.253C333.037 65.672 331.181 68.36 328.685 70.664C326.189 72.968 323.277 74.76 319.949 76.04C316.685 77.32 313.133 77.96 309.293 77.96ZM323.501 46.568L323.885 44.168C324.397 40.904 324.045 38.408 322.829 36.68C321.613 34.952 319.437 34.088 316.301 34.088C313.165 34.088 310.669 34.984 308.812 36.776C306.957 38.568 305.773 41.096 305.261 44.36L304.973 45.8L324.653 45.608L323.501 46.568Z" fill="#0C39D0"/>
</svg>
