<svg width="1552" height="297" viewBox="0 0 1552 297" fill="none" xmlns="http://www.w3.org/2000/svg">
<path d="M241.28 238.172C245.558 238.172 249.035 240.757 251.62 246.017C254.205 251.276 255.097 257.517 254.295 264.738C253.492 271.958 251.264 278.199 247.698 283.369C244.043 288.629 240.121 291.214 235.753 291.214H78.8578C55.6802 291.214 37.049 285.598 22.9641 274.365C7.80951 262.776 0.32135 246.284 0.32135 224.711C0.32135 221.769 0.49964 218.649 0.945364 215.261L14.7628 81.7206C17.2588 57.6512 27.6888 38.7523 45.9634 25.2021C62.8118 12.2759 83.7608 5.85742 108.632 5.85742H265.527C269.806 5.85742 273.282 8.44263 275.868 13.7022C278.453 18.9619 279.344 25.2021 278.542 32.4229C277.74 39.6437 275.511 45.8839 271.945 51.1436C268.29 56.314 264.368 58.9884 260 58.9884H131.988C122.717 58.9884 114.427 63.2675 106.938 71.7363C99.4503 80.2052 95.0822 90.6353 93.6559 102.937L84.2065 194.223C84.0282 196.184 83.9391 198.235 83.9391 200.196C83.9391 211.161 86.7026 220.254 92.1404 227.385C97.5782 234.517 104.71 238.083 113.357 238.083H241.369L241.28 238.172Z" fill="#0038ED"/>
<path d="M489.458 60.5039C512.814 60.5039 531.446 66.1201 545.352 77.3525C560.507 88.9415 567.995 105.434 567.995 126.829C567.995 129.86 567.906 132.89 567.728 136.278L559.17 215.529C556.852 239.598 546.511 258.497 528.236 271.958C511.388 284.884 490.35 291.303 465.211 291.303H378.652C355.474 291.303 336.843 285.687 322.758 274.454C307.603 262.865 300.115 246.373 300.115 224.978C300.115 222.036 300.293 218.916 300.739 215.529L309.03 136.278C311.526 112.209 321.956 93.2205 340.23 79.3137C357.079 66.7441 378.028 60.5039 402.899 60.5039H489.458ZM480.366 194.312L484.466 157.495C484.645 155.444 484.734 153.483 484.734 151.433C484.734 140.468 481.97 131.464 476.354 124.332C470.738 117.201 463.785 113.635 455.316 113.635H426.166C416.984 113.635 408.604 117.914 401.116 126.383C393.628 134.852 389.26 145.193 387.834 157.495L384 194.312C383.822 196.362 383.733 198.324 383.733 200.374C383.733 211.339 386.496 220.343 392.112 227.474C397.729 234.606 404.682 238.172 413.151 238.172H442.301C451.483 238.172 459.862 233.893 467.351 225.513C474.839 217.044 479.118 206.614 480.277 194.312H480.366Z" fill="#0038ED"/>
<path d="M764.737 60.5039C788.093 60.5039 806.724 66.1201 820.631 77.3525C835.786 88.9415 843.274 105.434 843.274 126.829C843.274 129.86 843.185 132.89 843.006 136.278L834.448 215.529C832.131 239.598 821.79 258.497 803.515 271.958C786.667 284.884 765.629 291.303 740.49 291.303H653.93C630.753 291.303 612.122 285.687 598.037 274.454C582.882 262.865 575.394 246.373 575.394 224.978C575.394 222.036 575.572 218.916 576.018 215.529L584.308 136.278C586.804 112.209 597.234 93.2205 615.509 79.3137C632.357 66.7441 653.306 60.5039 678.178 60.5039H764.737ZM755.645 194.312L759.745 157.495C759.923 155.444 760.013 153.483 760.013 151.433C760.013 140.468 757.249 131.464 751.633 124.332C746.017 117.201 739.064 113.635 730.595 113.635H701.445C692.263 113.635 683.883 117.914 676.395 126.383C668.907 134.852 664.539 145.193 663.112 157.495L659.279 194.312C659.101 196.362 659.012 198.324 659.012 200.374C659.012 211.339 661.775 220.343 667.391 227.474C673.007 234.606 679.961 238.172 688.429 238.172H717.58C726.762 238.172 735.141 233.893 742.629 225.513C750.118 217.044 754.397 206.614 755.555 194.312H755.645Z" fill="#0038ED"/>
<path d="M1081.74 145.46L1098.76 203.495C1100.72 210.091 1101.7 217.58 1101.7 225.87C1101.7 250.653 1094.75 270.087 1080.84 283.904C1074.34 290.501 1067.65 293.799 1060.79 293.799C1048.4 293.799 1039.66 285.241 1034.58 268.036L1012.83 193.599L959.519 230.862C957.379 249.048 951.674 264.649 942.403 277.486C933.221 290.412 923.147 296.83 912.361 296.83C902.377 296.83 894.175 291.482 887.757 280.695C881.428 269.908 878.219 256.447 878.219 240.223C878.219 236.3 878.397 232.289 878.843 228.277L895.602 68.9732C897.563 50.0742 903.179 34.028 912.539 20.5669C921.899 7.19504 932.151 0.419922 943.294 0.419922C953.1 0.419922 961.212 5.76866 967.72 16.5553C974.227 27.342 977.437 40.8031 977.437 57.0276C977.437 60.9501 977.169 64.9616 976.545 68.9732L968.879 141.984L1093.41 56.5819C1096.98 54.5315 1100.37 53.5509 1103.67 53.5509C1109.55 53.5509 1114.18 56.671 1117.48 63.0004C1120.78 69.2406 1122.48 77.1746 1122.48 86.8024C1122.48 106.058 1116.32 120.232 1103.93 129.503C1101.79 131.197 1094.31 136.457 1081.56 145.371L1081.74 145.46Z" fill="#0038ED"/>
<path d="M1208.05 124.511C1217.86 124.511 1225.97 129.771 1232.3 140.379C1238.63 150.987 1241.84 164.359 1241.84 180.584C1241.84 184.506 1241.66 188.518 1241.22 192.529L1237.65 228.188C1235.51 247.087 1229.81 263.222 1220.62 276.594C1211.44 289.966 1201.1 296.652 1189.69 296.652C1179.88 296.652 1171.77 291.303 1165.44 280.516C1159.02 269.73 1155.9 256.269 1155.9 240.044C1155.9 236.122 1156.08 232.11 1156.53 228.099L1160.36 192.44C1162.32 173.541 1167.94 157.495 1177.3 144.301C1186.66 131.019 1196.91 124.422 1208.05 124.422V124.511ZM1211 95.7167C1200.57 95.7167 1191.92 91.7052 1185.05 83.7712C1178.19 75.8372 1174.71 66.0311 1174.71 54.5313C1174.71 38.6633 1180.24 25.5588 1191.21 15.307C1200.39 6.74899 1210.28 2.38086 1220.62 2.38086C1230.96 2.38086 1239.34 6.3924 1246.21 14.3264C1253.07 22.2604 1256.55 32.0664 1256.55 43.5663C1256.55 59.4343 1251.02 72.5388 1240.06 82.7906C1230.88 91.3486 1221.16 95.7167 1210.91 95.7167H1211Z" fill="#0038ED"/>
<path d="M1515.07 238.707C1519.35 238.707 1522.82 241.293 1525.41 246.463C1527.91 251.634 1528.8 257.963 1528.08 265.54C1527.28 272.85 1525.05 279.002 1521.49 284.172C1517.92 289.342 1513.91 291.839 1509.54 291.839H1362.1C1338.74 291.839 1320.02 286.401 1305.85 275.525C1290.69 263.579 1283.2 247.176 1283.2 225.96C1283.2 223.018 1283.38 219.898 1283.83 216.599L1292.38 136.368C1294.88 112.298 1305.22 93.3103 1323.32 79.4036C1340.34 66.834 1361.38 60.5938 1386.34 60.5938H1472.9C1496.08 60.5938 1514.71 66.2099 1528.8 77.4423C1543.95 88.9422 1551.44 105.434 1551.44 126.918C1551.44 129.949 1551.26 132.98 1550.82 136.368C1548.23 160.437 1537.89 179.247 1519.61 192.708C1502.77 205.189 1481.82 211.518 1456.95 211.518H1368.07C1371.99 229.704 1381.44 238.797 1396.33 238.797H1515.25L1515.07 238.707ZM1409.43 113.636C1399.98 113.636 1391.6 117.825 1384.11 126.294C1376.63 134.763 1372.35 145.104 1371.19 157.317L1370.92 158.298H1451.6C1462.21 158.298 1468.27 150.81 1469.87 135.922C1471.48 121.035 1466.93 113.546 1456.32 113.546H1409.52L1409.43 113.636Z" fill="#0038ED"/>
</svg>
