<svg width="4612" height="630" viewBox="0 0 4612 630" fill="none" xmlns="http://www.w3.org/2000/svg">
<path d="M472.943 8.07812C527.884 8.07812 572.063 20.158 605.669 44.1288C641.541 68.8547 659.477 104.339 659.477 150.205C659.477 156.622 659.1 163.228 658.156 170.401L625.305 455.974C619.263 507.691 594.53 547.894 551.295 576.961C511.27 604.518 461.615 618.297 402.521 618.297H72.6878C19.0686 618.297 -4.90891 596.025 0.755078 551.48L55.8846 76.0271C60.9822 30.7279 90.0574 8.07812 143.11 8.07812H472.754H472.943ZM434.428 437.477L463.692 188.898C468.79 144.165 444.812 121.704 391.759 121.704H279.99C269.795 121.704 260.355 127.177 251.67 138.313C242.985 149.261 237.888 162.662 236 178.328L204.47 448.425C202.582 464.091 204.659 477.492 210.7 488.439C216.742 499.386 225.049 505.049 235.811 505.049H346.825C399.878 505.049 428.953 482.588 434.05 437.855L434.428 437.477Z" fill="#0038ED"/>
<path d="M1185.47 124.913C1240.41 124.913 1284.59 136.993 1318.2 160.964C1354.07 185.69 1372.01 220.985 1372.01 266.851C1372.01 273.268 1371.63 279.874 1370.69 287.047L1351.05 458.618C1345.01 510.146 1320.28 550.349 1277.04 579.416C1237.02 606.218 1187.17 619.619 1127.51 619.619H922.853C867.346 619.619 822.978 607.916 789.371 584.512C753.499 559.031 735.563 523.735 735.563 478.436C735.563 472.019 735.941 465.413 736.885 458.24C742.927 405.957 767.659 365.188 810.895 336.121C850.92 309.319 900.575 295.729 959.669 295.729H1170.56C1161.68 257.602 1139.41 238.35 1103.53 238.35H896.798C886.603 238.35 878.485 232.688 872.443 221.552C866.402 210.416 864.325 197.015 866.213 181.537C868.101 166.06 873.387 152.848 881.883 141.523C890.568 130.387 900.008 124.725 910.203 124.725H1185.47V124.913ZM1072.95 505.993C1094.85 505.993 1114.67 496.745 1132.42 478.436C1150.17 460.128 1160.55 438.044 1163.95 412.564V409.355H972.507C947.774 409.355 933.614 425.587 929.838 458.24C926.062 490.139 936.635 505.993 961.368 505.993H1073.14H1072.95Z" fill="#0038ED"/>
<path d="M1926.7 124.914C1981.64 124.914 2025.82 136.994 2059.43 160.965C2095.3 185.691 2113.24 220.986 2113.24 266.852C2113.24 273.269 2112.86 279.875 2111.91 287.048L2090.96 472.397C2086.24 512.6 2072.83 547.141 2050.74 575.642C2028.65 604.331 2004.3 618.487 1977.68 618.487C1953.89 618.487 1934.44 606.973 1919.34 583.946C1904.23 560.919 1896.68 532.041 1896.68 497.501C1896.68 489.007 1897.06 480.513 1898 472.02L1914.05 331.969C1914.43 327.817 1914.81 323.476 1914.81 319.323C1914.81 295.919 1908.2 276.667 1895.17 261.567C1882.14 246.278 1865.53 238.728 1845.52 238.728H1733.75C1723.55 238.728 1714.11 244.202 1705.43 255.149C1696.74 266.097 1691.65 279.309 1689.76 294.975L1669.56 472.208C1664.84 512.6 1651.43 546.952 1629.34 575.642C1607.25 604.331 1582.9 618.676 1556.28 618.676C1532.49 618.676 1513.04 607.162 1497.94 584.324C1482.83 561.297 1475.28 532.607 1475.28 498.067C1475.28 489.573 1475.66 481.079 1476.6 472.586L1509.45 191.919C1514.55 147.375 1543.63 125.103 1596.68 125.103H1926.32L1926.7 124.914Z" fill="#0038ED"/>
<path d="M2338.1 261.754C2361.32 261.754 2380.58 273.079 2395.68 295.728C2410.78 318.378 2418.34 347.067 2418.34 381.608C2418.34 390.102 2417.96 398.595 2417.01 407.089L2408.71 483.531C2403.61 523.923 2390.02 558.464 2368.12 586.965C2346.21 615.654 2321.86 629.999 2294.86 629.999C2271.64 629.999 2252.38 618.485 2237.28 595.458C2222.17 572.431 2214.62 543.553 2214.62 509.012C2214.62 500.518 2215 492.025 2215.94 483.531L2225 407.089C2229.72 366.697 2243.13 332.345 2265.22 304.033C2287.31 275.721 2311.66 261.565 2338.28 261.565L2338.1 261.754ZM2345.08 200.222C2320.35 200.222 2299.96 191.729 2283.53 174.741C2267.3 157.754 2259.18 136.803 2259.18 112.077C2259.18 78.1029 2272.21 50.1686 2298.26 28.274C2320.16 9.77677 2343.38 0.716797 2368.12 0.716797C2392.85 0.716797 2412.67 9.21052 2428.91 26.1977C2445.15 43.185 2453.26 64.1357 2453.26 88.8616C2453.26 122.836 2440.24 150.771 2414.18 172.665C2392.28 191.162 2369.25 200.222 2345.08 200.222Z" fill="#0038ED"/>
<path d="M3052.7 505.805C3062.9 505.805 3071.02 511.279 3077.06 522.226C3083.1 533.174 3085.18 546.763 3083.29 563.184C3081.4 578.85 3076.11 592.063 3067.62 603.01C3058.93 613.957 3049.49 619.431 3039.3 619.431H2689.26C2633.76 619.431 2589.39 607.728 2555.78 584.513C2519.91 559.032 2501.97 523.736 2501.97 478.626C2501.97 472.208 2502.35 465.602 2503.3 458.43L2523.5 286.859C2529.54 235.331 2554.08 194.751 2596.94 165.117C2637.53 138.315 2687.38 124.914 2746.47 124.914H2951.88C3006.82 124.914 3051 136.994 3084.61 160.965C3120.48 185.691 3138.42 220.986 3138.42 266.852C3138.42 273.269 3138.04 279.875 3137.1 286.859C3131.05 338.387 3106.32 378.59 3063.09 407.468C3023.06 434.27 2973.41 447.671 2914.31 447.671H2703.42C2712.67 486.553 2735.14 505.994 2770.45 505.994H3052.7V505.805ZM2801.98 238.351C2779.7 238.351 2759.69 247.411 2741.94 265.342C2724.19 283.462 2714 305.545 2711.16 331.592L2710.41 333.668H2901.85C2926.96 333.668 2941.5 317.813 2945.09 285.915C2948.86 254.017 2938.1 238.162 2912.99 238.162H2801.98V238.351Z" fill="#0038ED"/>
<path d="M3469.76 504.861C3479.96 504.861 3488.08 510.523 3494.12 521.659C3500.16 532.795 3502.24 546.196 3500.35 561.674C3498.46 577.151 3493.17 590.363 3484.68 601.688C3476.18 613.013 3466.55 618.486 3456.36 618.486H3387.82C3332.88 618.486 3288.7 606.407 3255.1 582.436C3219.22 557.71 3201.29 522.225 3201.29 476.36C3201.29 469.943 3201.67 463.337 3202.61 456.164L3237.54 150.583C3242.64 110.191 3256.23 75.8393 3278.32 47.1498C3300.41 18.4603 3324.76 4.11523 3351.38 4.11523C3374.61 4.11523 3393.86 15.6288 3408.97 38.6559C3424.07 61.6831 3431.62 90.5616 3431.62 125.291C3431.62 133.785 3431.06 142.278 3430.3 150.772L3400.28 411.431C3399.91 415.772 3399.53 419.925 3399.53 424.266C3399.53 447.671 3405.95 466.923 3419.16 482.211C3432.19 497.5 3448.99 505.05 3469.38 505.05L3469.76 504.861Z" fill="#0038ED"/>
<path d="M3870.77 504.861C3880.97 504.861 3889.09 510.523 3895.13 521.659C3901.17 532.795 3903.25 546.196 3901.36 561.674C3899.47 577.151 3894.18 590.363 3885.69 601.688C3877.19 613.013 3867.56 618.486 3857.37 618.486H3788.83C3733.89 618.486 3689.71 606.407 3656.11 582.436C3620.23 557.71 3602.3 522.225 3602.3 476.36C3602.3 469.943 3602.68 463.337 3603.62 456.164L3638.55 150.583C3643.65 110.191 3657.24 75.8393 3679.33 47.1498C3701.42 18.4603 3725.77 4.11523 3752.39 4.11523C3775.62 4.11523 3794.87 15.6288 3809.98 38.6559C3825.08 61.6831 3832.63 90.5616 3832.63 125.291C3832.63 133.785 3832.07 142.278 3831.31 150.772L3801.29 411.431C3800.73 415.772 3800.54 419.925 3800.54 424.266C3800.54 447.671 3806.96 466.923 3820.17 482.211C3833.2 497.5 3850 505.05 3870.39 505.05L3870.77 504.861Z" fill="#0038ED"/>
<path d="M4526.1 505.805C4536.29 505.805 4544.41 511.279 4550.45 522.226C4556.49 533.174 4558.57 546.763 4556.68 563.184C4554.79 578.85 4549.51 592.063 4541.01 603.01C4532.33 613.957 4522.89 619.431 4512.69 619.431H4162.66C4107.15 619.431 4062.78 607.728 4029.18 584.513C3993.3 559.032 3975.37 523.736 3975.37 478.626C3975.37 472.208 3975.74 465.602 3976.69 458.43L3996.89 286.859C4002.93 235.331 4027.48 194.751 4070.14 165.117C4110.74 138.315 4160.58 124.914 4219.67 124.914H4425.09C4480.03 124.914 4524.21 136.994 4557.81 160.965C4593.69 185.691 4611.62 220.986 4611.62 266.852C4611.62 273.269 4611.24 279.875 4610.3 286.859C4604.26 338.387 4579.53 378.59 4536.29 407.468C4496.27 434.27 4446.61 447.671 4387.52 447.671H4176.63C4185.88 486.553 4208.35 505.994 4243.65 505.994H4525.91L4526.1 505.805ZM4275.37 238.351C4253.09 238.351 4232.89 247.411 4215.33 265.342C4197.58 283.462 4187.39 305.545 4184.56 331.592L4183.8 333.668H4375.25C4400.36 333.668 4414.89 317.813 4418.48 285.915C4422.26 254.017 4411.49 238.162 4386.38 238.162H4275.37V238.351Z" fill="#0038ED"/>
</svg>
