<svg width="3690" height="620" viewBox="0 0 3690 620" fill="none" xmlns="http://www.w3.org/2000/svg">
<path d="M575.75 1.07289C599.538 1.07289 618.985 12.3976 634.089 34.8585C649.193 57.3193 656.745 85.4425 656.745 119.417C656.745 127.722 656.367 136.027 655.423 144.332L615.586 477.092C610.866 516.54 597.462 550.137 575.372 578.072C553.282 606.006 528.927 619.974 502.306 619.974C479.084 619.974 459.638 608.649 444.345 586.188C429.052 563.727 421.311 535.604 421.311 501.629C421.311 493.325 422.067 485.02 423.388 476.715L436.038 365.732H207.59L194.374 476.715C189.654 516.163 176.249 549.76 154.16 577.694C132.07 605.629 107.715 619.596 81.0942 619.596C57.3054 619.596 37.8591 608.271 22.7551 585.811C7.65111 563.35 0.0991211 535.227 0.0991211 501.252C0.0991211 492.947 0.854314 484.642 2.17591 476.337L41.2575 143.577C45.9775 104.128 59.3822 70.5317 81.4718 42.5971C103.561 14.6626 127.917 0.695312 154.537 0.695312C178.326 0.695312 197.772 12.02 212.876 34.4809C227.98 56.9418 235.532 85.0652 235.532 119.04C235.532 127.345 235.155 135.649 234.211 143.954L220.995 254.937H449.443L462.659 143.954C467.378 104.506 480.783 70.909 502.873 42.9744C524.962 15.0399 549.318 1.07289 575.938 1.07289H575.75Z" fill="#0038ED"/>
<path d="M1180.1 126.4C1235.04 126.4 1279.22 138.103 1312.82 161.507C1348.7 185.667 1366.63 220.208 1366.63 264.941C1366.63 271.169 1366.25 277.775 1365.31 284.57L1345.67 452.177C1339.63 502.573 1314.9 541.832 1271.67 570.144C1231.64 596.38 1181.8 609.404 1122.14 609.404H917.477C861.97 609.404 817.602 598.079 783.995 575.24C748.124 550.326 730.188 515.785 730.188 471.618C730.188 465.39 730.565 458.784 731.509 451.989C737.551 400.838 762.283 361.201 805.519 332.889C845.544 306.653 895.199 293.441 954.293 293.441H1165.18C1156.31 256.069 1134.03 237.383 1098.16 237.383H891.423C881.227 237.383 873.109 231.91 867.067 220.962C861.026 210.015 858.949 196.991 860.837 181.892C862.725 166.792 868.011 153.769 876.507 142.821C885.192 131.874 894.632 126.4 904.827 126.4H1180.1ZM1067.57 498.42C1089.47 498.42 1109.3 489.361 1127.04 471.43C1144.79 453.499 1155.18 431.982 1158.57 407.067V404.047H967.131C942.398 404.047 928.238 419.902 924.462 451.8C920.686 482.943 931.259 498.42 955.992 498.42H1067.76H1067.57Z" fill="#0038ED"/>
<path d="M2010.63 498.609C2020.82 498.609 2028.94 503.894 2034.98 514.653C2041.02 525.411 2043.1 538.623 2041.21 554.478C2039.32 569.578 2034.04 582.601 2025.54 593.36C2016.86 604.119 2007.42 609.404 1997.22 609.404H1647.19C1591.68 609.404 1547.31 598.079 1513.71 575.24C1477.83 550.515 1459.9 515.974 1459.9 471.807C1459.9 465.578 1460.28 458.972 1461.22 452.177L1481.42 284.57C1487.46 234.175 1512.01 194.538 1554.86 165.659C1595.46 139.424 1645.3 126.4 1704.39 126.4H1909.81C1964.75 126.4 2008.93 138.103 2042.53 161.507C2078.41 185.667 2096.34 220.019 2096.34 264.752C2096.34 270.98 2095.96 277.587 2095.02 284.381C2088.98 334.588 2064.25 373.848 2021.01 402.16C1980.99 428.395 1931.33 441.419 1872.24 441.419H1661.35C1670.6 479.357 1693.07 498.42 1728.37 498.42H2010.63V498.609ZM1759.9 237.383C1737.62 237.383 1717.61 246.255 1699.86 263.808C1682.12 281.362 1671.92 303.067 1669.09 328.548L1668.33 330.624H1859.78C1884.89 330.624 1899.42 315.147 1903.01 284.004C1906.79 252.861 1896.03 237.383 1870.92 237.383H1759.9Z" fill="#0038ED"/>
<path d="M2647.64 126.4C2657.83 126.4 2665.95 131.874 2671.99 142.821C2678.03 153.769 2680.11 166.792 2678.22 181.892C2676.34 196.991 2671.05 210.015 2662.55 220.962C2653.87 231.91 2644.43 237.383 2634.23 237.383H2483.95C2462.05 237.383 2442.22 246.255 2424.29 263.808C2406.35 281.362 2395.97 303.067 2393.14 328.548L2375.58 476.715C2370.86 516.163 2357.45 549.759 2335.36 577.694C2313.27 605.629 2288.92 619.596 2262.3 619.596C2238.51 619.596 2219.06 608.46 2203.96 585.999C2188.85 563.538 2181.3 535.415 2181.3 501.629C2181.3 493.324 2181.68 485.019 2182.62 476.903L2205.66 284.57C2211.7 234.175 2236.43 194.538 2279.67 165.659C2319.69 139.424 2369.35 126.4 2428.44 126.4H2647.07H2647.64Z" fill="#0038ED"/>
<path d="M2860.04 260.222C2883.26 260.222 2902.52 271.358 2917.62 293.441C2932.73 315.525 2940.28 343.459 2940.28 377.434C2940.28 385.738 2939.9 394.043 2938.96 402.348L2930.65 476.903C2925.55 516.351 2911.96 549.948 2890.06 577.883C2868.16 605.817 2843.8 619.785 2816.8 619.785C2793.58 619.785 2774.32 608.46 2759.22 585.999C2744.11 563.538 2736.56 535.415 2736.56 501.44C2736.56 493.135 2736.94 484.83 2737.88 476.526L2746.95 401.971C2751.67 362.523 2765.07 329.114 2787.16 301.369C2809.25 273.811 2833.61 259.844 2860.23 259.844L2860.04 260.222ZM2867.02 200.2C2842.29 200.2 2821.9 191.895 2805.47 175.286C2789.24 158.676 2781.12 138.291 2781.12 114.132C2781.12 80.9122 2794.15 53.7327 2820.2 32.2156C2842.1 14.2846 2865.32 5.22461 2890.06 5.22461C2914.79 5.22461 2934.61 13.5296 2950.85 30.1393C2967.09 46.7491 2975.21 67.1338 2975.21 91.2934C2975.21 124.513 2962.18 151.692 2936.12 173.21C2914.22 191.14 2891.19 200.2 2867.02 200.2Z" fill="#0038ED"/>
<path d="M3503.47 126.401C3558.41 126.401 3602.59 138.103 3636.19 161.508C3672.06 185.668 3690 220.208 3690 264.941C3690 271.17 3689.43 277.776 3688.68 284.571L3667.72 465.579C3663 504.839 3649.6 538.435 3627.51 566.37C3605.42 594.305 3581.06 608.272 3554.44 608.272C3530.65 608.272 3511.21 596.947 3496.1 574.486C3481 552.025 3473.45 523.902 3473.45 490.116C3473.45 481.811 3474.01 473.507 3474.77 465.202L3490.82 328.36C3491.19 324.208 3491.57 320.055 3491.57 315.903C3491.57 293.064 3484.96 274.378 3471.94 259.467C3458.91 244.556 3442.3 237.195 3422.28 237.195H3310.51C3300.32 237.195 3290.88 242.48 3282.19 253.239C3273.51 263.998 3268.41 277.021 3266.52 292.121L3246.32 465.202C3241.6 504.65 3228.2 538.247 3206.11 566.181C3184.02 594.116 3159.66 608.083 3133.04 608.083C3109.25 608.083 3089.81 596.947 3074.7 574.486C3059.6 552.025 3052.05 523.902 3052.05 490.116C3052.05 481.811 3052.42 473.507 3053.37 465.202L3086.22 191.141C3091.32 147.729 3120.39 126.023 3173.44 126.023H3503.09L3503.47 126.401Z" fill="#0038ED"/>
</svg>
