<svg width="3192" height="632" viewBox="0 0 3192 632" fill="none" xmlns="http://www.w3.org/2000/svg">
<path d="M576.033 0.8125C599.821 0.8125 619.268 12.3261 634.372 35.1644C649.476 58.0028 657.028 86.6923 657.028 121.233C657.028 129.727 656.65 138.22 655.706 146.525L615.869 485.703C611.149 525.906 597.745 560.258 575.655 588.759C553.565 617.26 529.21 631.605 502.589 631.605C479.367 631.605 459.921 620.091 444.628 597.253C429.335 574.414 421.594 545.725 421.594 511.184C421.594 502.69 422.35 494.197 423.671 485.892L436.321 372.833H207.873L194.657 485.892C189.937 526.095 176.532 560.447 154.443 588.948C132.353 617.449 107.998 631.793 81.3772 631.793C57.5884 631.793 38.142 620.28 23.0381 597.441C7.93408 574.603 0.38208 545.914 0.38208 511.373C0.38208 502.879 1.13729 494.386 2.45889 486.081L41.5404 146.903C46.2604 106.699 59.6652 72.3475 81.7548 43.8468C103.844 15.346 128.2 1.00122 154.82 1.00122C178.609 1.00122 198.055 12.5148 213.159 35.3531C228.263 58.1915 235.815 86.8811 235.815 121.422C235.815 129.915 235.438 138.409 234.494 146.714L221.278 259.773H449.725L462.941 146.714C467.661 106.511 481.066 72.1588 503.156 43.6581C525.245 15.1573 549.601 0.8125 576.221 0.8125H576.033Z" fill="#0038ED"/>
<path d="M1180.38 128.782C1235.32 128.782 1279.5 140.674 1313.11 164.644C1348.98 189.182 1366.91 224.477 1366.91 270.154C1366.91 276.383 1366.54 283.177 1365.59 290.161L1345.96 460.977C1339.92 512.316 1315.18 552.33 1271.95 581.209C1231.92 608.011 1182.08 621.223 1122.42 621.223H917.76C862.253 621.223 817.885 609.521 784.279 586.305C748.407 561.013 730.471 525.717 730.471 480.607C730.471 474.189 730.848 467.583 731.792 460.599C737.834 408.505 762.567 367.925 805.802 339.047C845.827 312.245 895.482 298.843 954.576 298.843H1165.47C1156.59 260.717 1134.31 241.842 1098.44 241.842H891.706C881.51 241.842 873.392 236.179 867.351 225.043C861.309 213.907 859.232 200.695 861.12 185.218C863.008 169.929 868.295 156.528 876.79 145.392C885.475 134.256 894.915 128.594 905.11 128.594H1180.38V128.782ZM1067.86 507.975C1089.76 507.975 1109.58 498.915 1127.33 480.418C1145.07 462.11 1155.46 440.215 1158.86 414.923V411.714H967.414C942.682 411.714 928.522 427.946 924.746 460.222C920.97 491.932 931.542 507.786 956.275 507.786H1068.04L1067.86 507.975Z" fill="#0038ED"/>
<path d="M1921.42 128.782C1976.36 128.782 2020.54 140.673 2054.15 164.644C2090.02 189.181 2107.95 224.477 2107.95 270.154C2107.95 276.382 2107.58 283.177 2106.63 290.161L2085.68 474.567C2080.96 514.581 2067.55 548.933 2045.46 577.434C2023.37 605.934 1999.02 620.09 1972.4 620.09C1948.61 620.09 1929.16 608.577 1914.06 585.738C1898.95 562.9 1891.4 534.211 1891.4 499.67C1891.4 491.176 1891.78 482.683 1892.72 474.378L1908.77 334.894C1909.15 330.741 1909.53 326.4 1909.53 322.248C1909.53 299.032 1902.92 279.78 1889.89 264.68C1876.86 249.58 1860.25 242.03 1840.24 242.03H1728.47C1718.27 242.03 1708.83 247.504 1700.15 258.451C1691.46 269.399 1686.36 282.611 1684.48 298.088L1664.27 474.567C1659.55 514.77 1646.15 549.122 1624.06 577.622C1601.97 606.123 1577.62 620.468 1550.99 620.468C1527.21 620.468 1507.76 609.143 1492.66 586.305C1477.55 563.466 1470 534.777 1470 500.425C1470 491.931 1470.38 483.626 1471.32 475.133L1504.17 195.787C1509.27 151.432 1538.35 129.348 1591.4 129.348H1921.04L1921.42 128.782Z" fill="#0038ED"/>
<path d="M2664.72 128.782C2719.66 128.782 2763.84 140.673 2797.45 164.644C2833.32 189.181 2851.26 224.477 2851.26 270.154C2851.26 276.382 2850.88 283.177 2849.94 290.161L2828.98 474.567C2824.26 514.581 2810.85 548.933 2788.77 577.434C2766.68 605.934 2742.32 620.09 2715.7 620.09C2691.91 620.09 2672.46 608.577 2657.36 585.738C2642.26 562.9 2634.7 534.211 2634.7 499.67C2634.7 491.176 2635.08 482.683 2636.03 474.378L2652.07 334.894C2652.45 330.741 2652.83 326.4 2652.83 322.248C2652.83 299.032 2646.22 279.78 2633.19 264.68C2620.17 249.58 2603.55 242.03 2583.54 242.03H2471.77C2461.58 242.03 2452.14 247.504 2443.45 258.451C2434.77 269.399 2429.67 282.611 2427.78 298.088L2407.58 474.567C2402.86 514.77 2389.45 549.122 2367.36 577.622C2345.27 606.123 2320.92 620.468 2294.3 620.468C2270.51 620.468 2251.06 609.143 2235.96 586.305C2220.86 563.466 2213.3 534.777 2213.3 500.425C2213.3 491.931 2213.68 483.626 2214.63 475.133L2247.48 195.787C2252.57 151.432 2281.65 129.348 2334.7 129.348H2664.35L2664.72 128.782Z" fill="#0038ED"/>
<path d="M3076.31 265.058C3099.53 265.058 3118.79 276.383 3133.89 298.843C3149 321.304 3156.55 349.994 3156.55 384.346C3156.55 392.839 3156.17 401.333 3155.23 409.638L3146.92 485.703C3141.82 525.906 3128.23 560.258 3106.33 588.759C3084.43 617.259 3060.07 631.604 3033.07 631.604C3009.85 631.604 2990.59 620.091 2975.49 597.252C2960.38 574.414 2952.83 545.724 2952.83 511.184C2952.83 502.69 2953.21 494.197 2954.15 485.892L2963.22 409.827C2967.94 369.624 2981.34 335.46 3003.43 307.337C3025.52 279.214 3049.88 265.058 3076.5 265.058H3076.31ZM3083.29 203.715C3058.56 203.715 3038.17 195.221 3021.74 178.423C3005.51 161.436 2997.39 140.674 2997.39 116.137C2997.39 82.3508 3010.42 54.605 3036.47 32.7104C3058.37 14.4019 3081.59 5.15332 3106.33 5.15332C3131.06 5.15332 3150.88 13.6469 3167.12 30.4454C3183.36 47.4326 3191.48 68.1948 3191.48 92.7319C3191.48 126.518 3178.45 154.452 3152.39 176.158C3130.49 194.466 3107.46 203.715 3083.29 203.715Z" fill="#0038ED"/>
</svg>
