<svg width="227" height="72" viewBox="0 0 227 72" fill="none" xmlns="http://www.w3.org/2000/svg">
<path d="M0.112 71L11.248 0.919998H25.648L21.328 27.8H37.456L41.776 0.919998H56.176L45.04 71H30.64L35.344 41.24H19.216L14.512 71H0.112ZM79.9465 71.96C72.8425 71.96 67.5945 70.04 64.2025 66.2C60.8745 62.36 59.7225 57.112 60.7465 50.456L65.8345 18.2H80.2345L75.1465 50.36C74.6985 53.304 75.0505 55.576 76.2025 57.176C77.3545 58.712 79.2745 59.48 81.9625 59.48C84.5865 59.48 86.7305 58.712 88.3945 57.176C90.1225 55.576 91.2105 53.304 91.6585 50.36L96.7465 18.2H111.147L106.059 50.456C105.355 54.936 103.819 58.776 101.451 61.976C99.1465 65.176 96.1385 67.64 92.4265 69.368C88.7785 71.096 84.6185 71.96 79.9465 71.96ZM116.773 71L125.125 18.2H138.565L136.933 28.28H140.581L135.493 34.424C136.389 28.728 138.373 24.44 141.445 21.56C144.581 18.68 148.677 17.24 153.733 17.24C159.557 17.24 163.781 19 166.405 22.52C169.093 26.04 169.925 31 168.901 37.4L168.229 41.72H152.869L153.445 38.36C153.893 35.48 153.445 33.24 152.101 31.64C150.821 30.04 148.869 29.24 146.245 29.24C143.493 29.24 141.253 30.04 139.525 31.64C137.861 33.24 136.805 35.48 136.357 38.36L131.173 71H116.773ZM201.024 71C195.648 71 191.68 69.464 189.12 66.392C186.56 63.32 185.696 59.096 186.528 53.72L190.08 31.16H176.16L178.176 18.2H192.096L194.4 3.8H208.8L206.496 18.2H226.176L224.16 31.16H204.48L200.928 53.72C200.416 56.6 201.6 58.04 204.48 58.04H218.88L216.864 71H201.024Z" fill="#0C39D0"/>
</svg>
