<svg width="1106" height="298" viewBox="0 0 1106 298" fill="none" xmlns="http://www.w3.org/2000/svg">
<path d="M243.272 0.876192C253.256 0.876192 261.457 6.22493 267.876 17.0116C274.205 27.7983 277.414 41.2593 277.414 57.3947C277.414 61.3172 277.236 65.3288 276.79 69.3404L260.031 228.644C258.07 247.543 252.454 263.679 243.093 277.051C233.733 290.422 223.482 297.108 212.338 297.108C202.533 297.108 194.42 291.76 187.913 280.973C181.405 270.186 178.196 256.725 178.196 240.501C178.196 236.578 178.463 232.567 179.087 228.555L184.347 175.513H88.0707L82.4546 228.555C80.4934 247.454 74.8773 263.589 65.5171 276.961C56.1569 290.333 45.9053 297.019 34.7622 297.019C24.778 297.019 16.5767 291.67 10.1582 280.884C3.73982 270.097 0.619751 256.636 0.619751 240.411C0.619751 236.489 0.887185 232.477 1.5112 228.466L18.003 69.1619C19.9642 50.263 25.5803 34.2168 34.9405 20.7557C44.3007 7.29467 54.5523 0.608764 65.6954 0.608764C75.6796 0.608764 83.8809 5.9575 90.2993 16.7442C96.7178 27.5308 99.8378 40.9919 99.8378 57.1273C99.8378 61.0497 99.6595 65.0614 99.2138 69.073L93.5977 122.204H189.874L195.49 69.073C197.451 50.174 203.067 34.1277 212.428 20.6666C221.788 7.20557 232.039 0.519531 243.183 0.519531L243.272 0.876192Z" fill="#0038ED"/>
<path d="M376.365 55.0762C386.349 55.0762 394.55 60.4249 400.969 71.2116C407.298 81.9983 410.507 95.5483 410.507 111.773C410.507 115.784 410.329 119.707 409.883 123.718L402.217 194.857C402.038 196.818 401.949 198.869 401.949 200.83C401.949 211.795 404.713 220.799 410.329 227.93C415.945 235.062 422.898 238.628 431.367 238.628H478.435C482.714 238.628 486.726 236.043 490.381 230.872C494.036 225.702 496.175 219.551 496.977 212.241L506.07 123.718C508.031 104.819 513.648 88.5949 523.008 75.223C532.368 61.7619 542.62 55.0762 553.763 55.0762C563.747 55.0762 571.948 60.4249 578.367 71.2116C584.696 81.9983 587.905 95.4593 587.905 111.595C587.905 115.606 587.727 119.529 587.281 123.54L572.84 260.558C570.7 281.418 558.398 291.848 536.023 291.848H397.135C373.958 291.848 355.326 286.232 341.242 274.999C326.087 263.41 318.599 246.918 318.599 225.345C318.599 222.403 318.688 219.283 318.866 215.895L328.583 123.54C330.544 104.641 336.16 88.5951 345.521 75.134C354.881 61.7621 365.132 55.0762 376.275 55.0762H376.365Z" fill="#0038ED"/>
<path d="M825.565 60.9609C829.844 60.9609 833.321 63.5461 835.906 68.8057C838.491 74.0653 839.293 80.3058 838.58 87.4375C837.778 94.6583 835.549 100.898 831.983 106.158C828.418 111.418 824.406 114.003 820.038 114.003H756.745C747.563 114.003 739.095 118.193 731.606 126.662C724.029 135.131 719.661 145.471 718.502 157.684L711.192 228.645C709.231 247.544 703.615 263.679 694.255 277.051C684.895 290.423 674.643 297.109 663.5 297.109C653.516 297.109 645.314 291.76 638.896 281.063C632.567 270.276 629.357 256.904 629.357 240.68C629.357 236.757 629.536 232.745 629.981 228.823L639.698 136.735C642.283 112.666 652.624 93.6775 670.899 79.7708C687.747 67.2012 708.696 60.9609 733.568 60.9609H825.743H825.565Z" fill="#0038ED"/>
<path d="M1073.12 238.629C1077.4 238.629 1080.88 241.214 1083.46 246.385C1086.05 251.555 1086.94 257.706 1086.13 264.927C1085.33 272.594 1083.1 278.923 1079.54 284.094C1075.88 289.264 1071.96 291.76 1067.59 291.76H988.432C965.255 291.76 946.623 286.322 932.539 275.357C917.384 263.501 909.896 246.92 909.896 225.792C909.896 222.494 910.074 219.195 910.52 215.897L921.663 108.743H898.396C894.117 108.743 890.641 106.069 888.055 100.809C885.47 95.5498 884.579 89.2202 885.381 81.9102C886.183 74.6003 888.323 68.4492 891.978 63.2787C895.633 58.1083 899.555 55.6123 903.923 55.6123H928.081C931.825 39.7443 937.887 26.7289 946.356 16.6554C954.825 6.58191 963.828 1.58984 973.456 1.58984C983.084 1.58984 991.107 6.67105 997.436 16.6554C1003.77 26.7289 1007.24 39.7443 1007.6 55.6123H1092.38C1096.65 55.6123 1100.13 58.1974 1102.72 63.2787C1105.3 68.3601 1106.1 74.6003 1105.39 81.9102C1104.77 89.2202 1102.72 95.4607 1099.06 100.809C1095.41 106.069 1091.31 108.743 1086.85 108.743H1002.96L993.87 195.126C993.692 197.087 993.603 199.048 993.603 201.099C993.603 211.707 996.366 220.622 1001.98 227.931C1007.6 235.241 1014.55 238.807 1023.02 238.807H1073.39L1073.12 238.629Z" fill="#0038ED"/>
</svg>
