<svg width="3097" height="824" viewBox="0 0 3097 824" fill="none" xmlns="http://www.w3.org/2000/svg">
<path d="M576.125 0C599.914 0 619.36 10.9473 634.464 32.842C649.568 54.7366 657.12 82.1049 657.12 114.947C657.12 123.063 656.743 130.99 655.799 139.106L615.962 462.619C611.242 500.934 597.837 533.587 575.748 560.956C553.658 588.135 529.303 601.725 502.682 601.725C479.46 601.725 460.013 590.778 444.721 568.883C429.428 546.988 421.687 519.62 421.687 486.778C421.687 478.662 422.442 470.735 423.764 462.619L436.413 354.844H207.966L194.75 462.619C190.03 500.934 176.625 533.587 154.535 560.956C132.446 588.135 108.091 601.725 81.4699 601.725C57.6812 601.725 38.2348 590.778 23.1308 568.883C8.02684 546.988 0.474854 519.62 0.474854 486.778C0.474854 478.662 1.23005 470.735 2.55164 462.619L41.6332 139.106C46.3532 100.791 59.758 68.1376 81.8476 40.7693C103.937 13.5898 128.292 0 154.913 0C178.702 0 198.148 10.9473 213.252 32.842C228.356 54.7366 235.908 82.1049 235.908 114.947C235.908 123.063 235.531 130.99 234.587 139.106L221.371 246.881H449.818L463.034 139.106C467.754 100.791 481.159 68.1376 503.249 40.7693C525.338 13.5898 549.693 0 576.314 0L576.125 0Z" fill="#0038ED"/>
<path d="M1371.92 232.725H1372.67L1319.62 669.107C1313.58 718.748 1288.84 757.441 1245.61 784.998C1205.58 810.479 1155.93 823.314 1096.84 823.314H783.805C773.61 823.314 765.492 818.029 759.45 807.648C753.408 797.267 751.332 784.243 753.22 768.766C755.108 754.044 760.394 741.397 768.89 731.016C777.575 720.635 787.015 715.35 797.21 715.35H1041.71C1063.98 715.35 1084 706.668 1101.74 689.115C1119.49 671.561 1129.69 650.799 1132.52 626.639L1136.67 590.4H920.119C864.612 590.4 820.432 579.075 787.392 556.048C751.52 532.455 733.584 498.858 733.584 455.257C733.584 449.217 733.773 442.8 734.34 436.194L757.373 248.768C762.093 210.453 775.498 177.799 797.588 150.431C819.677 123.251 844.032 109.662 870.653 109.662C894.442 109.662 913.888 120.609 928.992 142.504C944.096 164.398 951.648 191.767 951.648 224.797C951.648 232.913 951.271 241.03 950.327 248.957L929.37 418.64C924.272 461.108 948.25 482.248 1001.3 482.248H1113.07C1123.27 482.248 1132.71 476.963 1141.39 466.582C1150.08 456.201 1155.17 443.555 1157.06 428.644L1178.77 248.768C1183.49 210.453 1196.9 177.611 1218.99 150.242C1241.08 122.874 1265.43 109.284 1292.05 109.284C1316.79 109.284 1336.61 121.175 1351.71 145.146C1366.82 168.928 1373.8 197.995 1372.29 232.347L1371.92 232.725Z" fill="#0038ED"/>
<path d="M2011 483.758C2021.2 483.758 2029.32 489.043 2035.36 499.424C2041.4 509.806 2043.48 522.829 2041.59 538.306C2039.7 553.029 2034.41 565.675 2025.92 576.056C2017.23 586.437 2007.79 591.722 1997.6 591.722H1647.56C1592.06 591.722 1547.69 580.586 1514.08 558.502C1478.21 534.343 1460.27 500.746 1460.27 457.9C1460.27 451.86 1460.65 445.443 1461.6 438.837L1481.8 275.948C1487.84 227.063 1512.38 188.37 1555.24 160.246C1595.83 134.765 1645.68 121.931 1704.77 121.931H1910.18C1965.12 121.931 2009.3 133.255 2042.91 156.094C2078.78 179.498 2096.72 213.095 2096.72 256.507C2096.72 262.547 2096.34 268.964 2095.4 275.571C2089.36 324.456 2064.62 362.583 2021.39 390.14C1981.36 415.621 1931.71 428.267 1872.61 428.267H1661.72C1670.97 465.261 1693.44 483.758 1728.75 483.758H2011ZM1760.28 229.705C1738 229.705 1717.99 238.199 1700.24 255.375C1682.49 272.551 1672.3 293.502 1669.46 318.416L1668.71 320.492H1860.15C1885.26 320.492 1899.8 305.393 1903.39 275.193C1907.16 244.994 1896.4 229.894 1871.29 229.894H1760.28V229.705Z" fill="#0038ED"/>
<path d="M2266.64 251.977C2289.86 251.977 2309.12 262.736 2324.22 284.253C2339.33 305.77 2346.88 332.95 2346.88 365.98C2346.88 374.097 2346.5 382.024 2345.56 390.14L2337.25 462.619C2332.15 500.934 2318.56 533.588 2296.66 560.956C2274.76 588.136 2250.4 601.725 2223.4 601.725C2200.18 601.725 2180.92 590.778 2165.82 568.883C2150.72 546.989 2143.16 519.62 2143.16 486.778C2143.16 478.662 2143.54 470.735 2144.48 462.619L2153.55 390.14C2158.27 351.824 2171.67 319.171 2193.76 292.369C2215.85 265.567 2240.21 251.977 2266.83 251.977H2266.64ZM2273.62 193.466C2248.89 193.466 2228.5 185.35 2212.07 169.306C2195.84 153.263 2187.72 133.444 2187.72 109.851C2187.72 77.5752 2200.75 51.1506 2226.8 30.1997C2248.7 12.6462 2271.92 3.96387 2296.66 3.96387C2321.39 3.96387 2341.21 12.08 2357.45 28.1235C2373.69 44.167 2381.81 63.9854 2381.81 87.5787C2381.81 119.854 2368.78 146.468 2342.72 167.23C2320.82 184.783 2297.79 193.466 2273.62 193.466Z" fill="#0038ED"/>
<path d="M2910.07 121.931C2965.01 121.931 3009.19 133.255 3042.79 156.094C3078.67 179.498 3096.6 213.095 3096.6 256.696C3096.6 262.736 3096.22 269.153 3095.28 275.759L3074.32 451.672C3069.6 489.987 3056.2 522.64 3034.11 549.82C3012.02 576.999 2987.66 590.589 2961.04 590.589C2937.25 590.589 2917.81 579.642 2902.7 557.747C2887.6 535.853 2880.05 508.484 2880.05 475.642C2880.05 467.526 2880.43 459.599 2881.37 451.483L2897.42 318.416C2897.8 314.453 2898.17 310.3 2898.17 306.336C2898.17 284.253 2891.57 265.945 2878.54 251.411C2865.51 237.066 2848.9 229.705 2828.88 229.705H2717.11C2706.92 229.705 2697.48 234.99 2688.79 245.371C2680.11 255.752 2675.01 268.398 2673.12 283.121L2652.92 451.483C2648.2 489.798 2634.8 522.452 2612.71 549.82C2590.62 576.999 2566.26 590.589 2539.64 590.589C2515.85 590.589 2496.41 579.642 2481.3 557.936C2466.2 536.23 2458.65 508.862 2458.65 476.02C2458.65 467.904 2459.02 459.976 2459.97 451.86L2492.82 185.35C2497.92 143.07 2526.99 121.931 2580.05 121.931H2909.69H2910.07Z" fill="#0038ED"/>
</svg>
