<svg width="456" height="89" viewBox="0 0 456 89" fill="none" xmlns="http://www.w3.org/2000/svg">
<path d="M0.362 71L11.498 0.919998H25.898L21.578 27.8H37.706L42.026 0.919998H56.426L45.29 71H30.89L35.594 41.24H19.466L14.762 71H0.362ZM62.2445 88.28L64.0685 76.76H78.9485C81.6365 76.76 83.8125 76.088 85.4765 74.744C87.2045 73.4 88.2285 71.544 88.5485 69.176L88.8365 67.16L90.6605 56.12H86.4365L91.1405 52.76C90.4365 57.24 88.5805 60.76 85.5725 63.32C82.6285 65.88 78.9805 67.16 74.6285 67.16C69.5085 67.16 65.6685 65.368 63.1085 61.784C60.6125 58.2 59.8445 53.432 60.8045 47.48L65.4125 18.2H79.8125L75.3965 46.04C74.9485 48.792 75.3325 50.936 76.5485 52.472C77.8285 53.944 79.7485 54.68 82.3085 54.68C84.8685 54.68 86.9485 53.944 88.5485 52.472C90.2125 50.936 91.2685 48.792 91.7165 46.04L96.1325 18.2H110.533L102.565 69.656C101.669 75.416 98.9805 79.96 94.5005 83.288C90.0205 86.616 84.3885 88.28 77.6045 88.28H62.2445ZM112.703 88.28L123.839 18.2H137.759L136.127 28.28H139.487L135.647 31.64C136.351 27.096 138.143 23.576 141.023 21.08C143.967 18.52 147.615 17.24 151.967 17.24C157.279 17.24 161.215 19.128 163.775 22.904C166.399 26.616 167.231 31.608 166.271 37.88L164.063 51.32C163.423 55.48 162.111 59.128 160.127 62.264C158.207 65.336 155.807 67.736 152.927 69.464C150.047 71.128 146.815 71.96 143.231 71.96C138.879 71.96 135.647 70.712 133.535 68.216C131.487 65.656 130.815 62.104 131.519 57.56L134.399 60.92H131.039L129.407 73.88L127.103 88.28H112.703ZM140.063 59.48C142.751 59.48 144.927 58.744 146.591 57.272C148.255 55.736 149.311 53.592 149.759 50.84L151.775 38.36C152.223 35.544 151.839 33.4 150.623 31.928C149.407 30.456 147.455 29.72 144.767 29.72C142.143 29.72 139.967 30.488 138.239 32.024C136.575 33.496 135.519 35.608 135.071 38.36L133.055 50.84C132.607 53.592 132.991 55.736 134.207 57.272C135.487 58.744 137.439 59.48 140.063 59.48ZM195.418 71.96C190.746 71.96 186.81 71.096 183.609 69.368C180.41 67.576 178.106 65.112 176.698 61.976C175.354 58.776 175.002 55.064 175.642 50.84L177.658 38.36C178.362 34.136 179.898 30.456 182.266 27.32C184.698 24.12 187.77 21.656 191.482 19.928C195.258 18.136 199.482 17.24 204.154 17.24C208.826 17.24 212.73 18.136 215.866 19.928C219.066 21.656 221.338 24.12 222.682 27.32C224.09 30.456 224.442 34.136 223.738 38.36L222.202 47.96H189.85L189.37 50.84C188.858 54.168 189.274 56.696 190.618 58.424C191.962 60.088 194.234 60.92 197.434 60.92C199.674 60.92 201.53 60.536 203.002 59.768C204.538 59 205.626 57.944 206.266 56.6H220.378C219.162 59.672 217.306 62.36 214.81 64.664C212.314 66.968 209.402 68.76 206.074 70.04C202.81 71.32 199.258 71.96 195.418 71.96ZM209.626 40.568L210.01 38.168C210.522 34.904 210.17 32.408 208.954 30.68C207.738 28.952 205.562 28.088 202.426 28.088C199.29 28.088 196.794 28.984 194.938 30.776C193.082 32.568 191.898 35.096 191.386 38.36L191.098 39.8L210.778 39.608L209.626 40.568ZM288.175 71L299.311 0.919998H321.871C328.975 0.919998 334.383 2.552 338.095 5.816C341.807 9.016 343.215 13.368 342.319 18.872C341.871 21.944 340.719 24.632 338.863 26.936C337.071 29.24 334.863 31.032 332.239 32.312C329.679 33.592 326.991 34.232 324.175 34.232L324.079 34.52C327.215 34.456 329.967 35.032 332.335 36.248C334.767 37.464 336.591 39.288 337.807 41.72C339.023 44.152 339.343 47.16 338.767 50.744C338.127 54.84 336.591 58.424 334.159 61.496C331.727 64.504 328.591 66.84 324.751 68.504C320.911 70.168 316.527 71 311.599 71H288.175ZM303.919 59.384H312.847C315.983 59.384 318.575 58.552 320.623 56.888C322.735 55.224 324.015 52.92 324.463 49.976C324.911 47.032 324.367 44.728 322.831 43.064C321.295 41.336 318.959 40.472 315.823 40.472H306.895L303.919 59.384ZM308.719 29.144H317.167C319.983 29.144 322.287 28.408 324.079 26.936C325.935 25.4 327.087 23.352 327.535 20.792C327.919 18.168 327.407 16.152 325.999 14.744C324.655 13.272 322.575 12.536 319.759 12.536H311.311L308.719 29.144ZM368.009 71.96C363.337 71.96 359.401 71.096 356.201 69.368C353.065 67.576 350.793 65.112 349.385 61.976C348.041 58.776 347.689 55.064 348.329 50.84L350.345 38.36C351.049 34.136 352.585 30.456 354.953 27.32C357.321 24.12 360.361 21.656 364.073 19.928C367.849 18.136 372.073 17.24 376.745 17.24C381.481 17.24 385.417 18.136 388.553 19.928C391.753 21.656 394.025 24.12 395.369 27.32C396.777 30.456 397.129 34.136 396.425 38.36L394.409 50.84C393.769 55.064 392.233 58.776 389.801 61.976C387.433 65.112 384.393 67.576 380.681 69.368C376.969 71.096 372.745 71.96 368.009 71.96ZM370.025 59.48C372.841 59.48 375.081 58.744 376.745 57.272C378.473 55.736 379.561 53.592 380.009 50.84L382.025 38.36C382.473 35.544 382.057 33.4 380.777 31.928C379.561 30.456 377.545 29.72 374.729 29.72C371.977 29.72 369.737 30.456 368.009 31.928C366.281 33.4 365.193 35.544 364.745 38.36L362.729 50.84C362.281 53.592 362.697 55.736 363.977 57.272C365.257 58.744 367.273 59.48 370.025 59.48ZM407.62 88.28L409.444 76.76H424.324C427.012 76.76 429.188 76.088 430.852 74.744C432.58 73.4 433.604 71.544 433.924 69.176L434.212 67.16L436.036 56.12H431.812L436.516 52.76C435.812 57.24 433.956 60.76 430.948 63.32C428.003 65.88 424.356 67.16 420.004 67.16C414.884 67.16 411.044 65.368 408.484 61.784C405.988 58.2 405.22 53.432 406.18 47.48L410.788 18.2H425.188L420.772 46.04C420.324 48.792 420.708 50.936 421.924 52.472C423.204 53.944 425.124 54.68 427.684 54.68C430.244 54.68 432.324 53.944 433.924 52.472C435.588 50.936 436.644 48.792 437.092 46.04L441.508 18.2H455.908L447.94 69.656C447.044 75.416 444.356 79.96 439.876 83.288C435.396 86.616 429.764 88.28 422.98 88.28H407.62Z" fill="#0C39D0"/>
</svg>
