<svg width="2301" height="413" viewBox="0 0 2301 413" fill="none" xmlns="http://www.w3.org/2000/svg">
<path d="M243.129 1.14168C253.113 1.14168 261.314 6.49056 267.732 17.2772C274.062 28.0639 277.271 41.5249 277.271 57.6604C277.271 61.5828 277.093 65.5943 276.647 69.6059L259.888 228.91C257.927 247.809 252.31 263.944 242.95 277.316C233.59 290.688 223.338 297.374 212.195 297.374C202.389 297.374 194.277 292.025 187.77 281.238C181.262 270.452 178.053 256.991 178.053 240.766C178.053 236.844 178.32 232.832 178.944 228.821L184.204 175.779H87.9276L82.3115 228.821C80.3503 247.72 74.7342 263.855 65.374 277.227C56.0138 290.599 45.7621 297.285 34.619 297.285C24.6348 297.285 16.4335 291.936 10.0151 281.149C3.59669 270.363 0.476624 256.902 0.476624 240.677C0.476624 236.755 0.744058 232.743 1.36807 228.731L17.8598 69.4276C19.821 50.5286 25.4371 34.4824 34.7973 21.0213C44.1575 7.56029 54.4092 0.874253 65.5523 0.874253C75.5365 0.874253 83.7378 6.22299 90.1562 17.0097C96.5746 27.7963 99.6947 41.2575 99.6947 57.3929C99.6947 61.3154 99.5164 65.3269 99.0707 69.3385L93.4546 122.469H189.731L195.347 69.3385C197.308 50.4395 202.924 34.3932 212.284 20.9321C221.645 7.47106 231.896 0.785156 243.039 0.785156L243.129 1.14168Z" fill="#0038ED"/>
<path d="M584.285 115.784H584.553L562.177 330.626C559.592 355.141 549.251 374.129 530.977 387.769C514.128 400.338 493.179 406.668 468.308 406.668H336.463C332.095 406.668 328.707 404.082 326.122 398.912C323.537 393.741 322.646 387.412 323.448 379.835C324.25 372.525 326.39 366.374 330.045 361.203C333.7 356.033 337.622 353.536 341.99 353.536H445.041C454.491 353.536 462.87 349.258 470.358 340.61C477.847 332.052 482.125 321.711 483.284 309.855L485.067 292.026H393.783C370.427 292.026 351.796 286.41 337.889 275.177C322.735 263.588 315.247 247.096 315.247 225.523C315.247 222.581 315.336 219.461 315.514 216.073L325.231 123.718C327.192 104.819 332.808 88.7728 342.168 75.3118C351.528 61.9399 361.78 55.2539 372.923 55.2539C382.907 55.2539 391.109 60.6026 397.527 71.3893C403.946 82.176 407.066 95.7262 407.066 111.951C407.066 115.962 406.887 119.885 406.442 123.896L397.616 207.515C395.477 228.465 405.55 238.895 427.925 238.895H474.994C479.273 238.895 483.284 236.309 486.939 231.139C490.594 225.969 492.734 219.817 493.536 212.508L502.629 123.985C504.59 105.086 510.206 88.862 519.566 75.4901C528.926 62.029 539.178 55.343 550.321 55.343C560.751 55.343 569.131 61.2267 575.46 72.994C581.789 84.7613 584.731 99.0246 584.107 115.962L584.285 115.784Z" fill="#0038ED"/>
<path d="M825.957 61.1367C849.313 61.1367 868.033 66.5746 882.207 77.5396C897.272 89.396 904.85 105.977 904.85 127.105C904.85 130.403 904.671 133.702 904.226 137L896.024 216.429C893.439 240.588 883.098 259.397 864.824 273.037C847.975 285.606 826.937 291.936 801.798 291.936H710.514L704.898 343.997C702.937 362.896 697.321 379.031 687.961 392.403C678.601 405.775 668.349 412.55 657.206 412.55C647.4 412.55 639.288 407.202 632.78 396.415C626.273 385.628 623.063 372.167 623.063 355.943C623.063 352.02 623.331 348.009 623.955 343.997L645.439 137.089C648.024 112.574 658.365 93.5858 676.639 80.0356C693.488 67.466 714.437 61.1367 739.308 61.1367H825.868H825.957ZM817.131 195.123L820.965 157.86C821.143 155.899 821.232 153.938 821.232 151.887C821.232 141.279 818.469 132.364 812.852 125.054C807.236 117.744 800.283 114.179 791.814 114.179H762.664C753.482 114.179 745.102 118.458 737.614 127.105C730.126 135.752 725.758 146.004 724.332 157.86L720.499 195.123C720.32 197.084 720.231 199.046 720.231 201.096C720.231 211.704 722.995 220.619 728.611 227.929C734.227 235.239 741.18 238.805 749.649 238.805H778.799C787.981 238.805 796.361 234.526 803.849 225.879C811.337 217.321 815.705 206.98 817.131 195.123Z" fill="#0038ED"/>
<path d="M1186.01 239.34C1190.29 239.34 1193.77 241.926 1196.35 247.096C1198.85 252.267 1199.74 258.596 1199.03 266.173C1198.23 273.483 1196 279.634 1192.43 284.805C1188.86 289.975 1184.85 292.471 1180.49 292.471H1033.04C1009.68 292.471 990.964 287.033 976.79 276.158C961.635 264.212 954.147 247.809 954.147 226.592C954.147 223.651 954.325 220.531 954.771 217.232L963.329 137.001C965.825 112.931 976.166 93.9432 994.262 80.0364C1011.29 67.4668 1032.33 61.2266 1057.29 61.2266H1143.85C1167.02 61.2266 1185.66 66.8428 1199.74 78.0752C1214.9 89.575 1222.38 106.067 1222.38 127.551C1222.38 130.582 1222.2 133.613 1221.76 137.001C1219.17 161.07 1208.83 179.88 1190.56 193.341C1173.71 205.822 1152.76 212.151 1127.89 212.151H1039.01C1042.93 230.337 1052.38 239.43 1067.27 239.43H1186.19L1186.01 239.34ZM1080.38 114.268C1070.93 114.268 1062.55 118.458 1055.06 126.927C1047.57 135.396 1043.29 145.737 1042.13 157.95L1041.87 158.931H1122.54C1133.15 158.931 1139.21 151.442 1140.82 136.555C1142.42 121.668 1137.87 114.179 1127.27 114.179H1080.46L1080.38 114.268Z" fill="#0038ED"/>
<path d="M1687.01 100.362C1684.87 119.885 1677.29 136.288 1664.36 149.481C1672.83 160.09 1677.02 173.105 1677.02 188.705C1677.02 192.004 1676.93 195.124 1676.75 198.155L1674.7 215.984C1672.12 240.143 1661.87 258.953 1643.77 272.592C1626.74 285.518 1605.71 291.937 1580.74 291.937H1494.19C1471.01 291.937 1452.38 286.32 1438.29 275.088C1423.14 263.499 1415.65 247.007 1415.65 225.434C1415.65 222.492 1415.83 219.372 1416.27 215.984L1430.09 82.4434C1432.68 58.374 1443.02 39.4749 1461.29 25.9248C1478.14 12.9986 1499.09 6.58008 1523.96 6.58008H1610.52C1633.88 6.58008 1652.6 12.1963 1666.77 23.4287C1681.92 35.0177 1689.41 51.5989 1689.41 73.0831C1689.41 76.114 1689.23 79.2341 1688.79 82.5325L1687.01 100.451V100.362ZM1557.75 238.806C1580.12 238.806 1592.42 228.286 1594.56 207.337C1596.7 186.388 1586.63 175.868 1564.25 175.868H1501.58L1498.02 207.337C1495.88 228.375 1506.04 238.806 1528.6 238.806H1557.75ZM1547.14 59.6221C1524.76 59.6221 1512.46 70.1412 1510.32 91.1797L1507.11 122.648H1569.78C1592.16 122.648 1604.37 112.129 1606.6 91.1797C1608.74 70.1412 1598.66 59.6221 1576.29 59.6221H1547.14Z" fill="#0038ED"/>
<path d="M1910.4 61.1367C1933.76 61.1367 1952.39 66.7529 1966.3 77.9853C1981.45 89.5743 1988.94 106.066 1988.94 127.461C1988.94 130.492 1988.85 133.523 1988.67 136.911L1980.11 216.162C1977.8 240.231 1967.45 259.13 1949.18 272.591C1932.33 285.517 1911.29 291.936 1886.15 291.936H1799.6C1776.42 291.936 1757.79 286.32 1743.7 275.087C1728.55 263.498 1721.06 247.006 1721.06 225.611C1721.06 222.669 1721.24 219.549 1721.68 216.162L1729.97 136.911C1732.47 112.841 1742.9 93.8533 1761.17 79.9465C1778.02 67.3769 1798.97 61.1367 1823.84 61.1367H1910.4ZM1901.31 194.945L1905.41 158.128C1905.59 156.077 1905.68 154.116 1905.68 152.066C1905.68 141.101 1902.91 132.097 1897.3 124.965C1891.68 117.833 1884.73 114.268 1876.26 114.268H1847.11C1837.93 114.268 1829.55 118.547 1822.06 127.016C1814.57 135.485 1810.2 145.825 1808.78 158.128L1804.94 194.945C1804.77 196.995 1804.68 198.956 1804.68 201.007C1804.68 211.972 1807.44 220.976 1813.06 228.107C1818.67 235.239 1825.63 238.805 1834.09 238.805H1863.24C1872.43 238.805 1880.81 234.526 1888.29 226.146C1895.78 217.677 1900.06 207.247 1901.22 194.945H1901.31Z" fill="#0038ED"/>
<path d="M2300.14 115.784H2300.41L2278.03 330.626C2275.45 355.141 2265.11 374.129 2246.83 387.769C2229.99 400.338 2209.04 406.668 2184.17 406.668H2052.32C2047.95 406.668 2044.56 404.082 2041.98 398.912C2039.39 393.741 2038.5 387.412 2039.31 379.835C2040.11 372.525 2042.25 366.374 2045.9 361.203C2049.56 356.033 2053.48 353.536 2057.85 353.536H2160.9C2170.35 353.536 2178.73 349.258 2186.22 340.61C2193.7 332.052 2197.98 321.711 2199.14 309.855L2200.92 292.026H2109.64C2086.28 292.026 2067.65 286.41 2053.75 275.177C2038.59 263.588 2031.1 247.096 2031.1 225.523C2031.1 222.581 2031.19 219.461 2031.37 216.073L2041.09 123.718C2043.05 104.819 2048.67 88.7728 2058.03 75.3118C2067.39 61.9399 2077.64 55.2539 2088.78 55.2539C2098.76 55.2539 2106.97 60.6026 2113.38 71.3893C2119.8 82.176 2122.92 95.7262 2122.92 111.951C2122.92 115.962 2122.74 119.885 2122.3 123.896L2113.47 207.515C2111.33 228.465 2121.41 238.895 2143.78 238.895H2190.85C2195.13 238.895 2199.14 236.309 2202.8 231.139C2206.45 225.969 2208.59 219.817 2209.39 212.508L2218.49 123.985C2220.45 105.086 2226.06 88.862 2235.42 75.4901C2244.78 62.029 2255.04 55.343 2266.18 55.343C2276.61 55.343 2284.99 61.2267 2291.32 72.994C2297.65 84.7613 2300.59 99.0246 2299.96 115.962L2300.14 115.784Z" fill="#0038ED"/>
</svg>
