<svg width="2439" height="849" viewBox="0 0 2439 849" fill="none" xmlns="http://www.w3.org/2000/svg">
<path d="M534.249 0.0839844C589.189 0.0839844 633.369 11.7863 666.975 35.3797C702.847 59.5393 720.783 93.8912 720.783 138.247C720.783 145.23 720.594 152.025 720.028 159.009L680.946 488.184C676.226 524.8 663.765 556.132 643.564 581.613C623.362 607.283 601.084 620.118 576.917 620.118C555.583 620.118 537.836 609.736 523.865 588.974C509.893 568.212 502.908 542.543 502.908 512.154C502.908 504.605 503.285 496.488 504.229 488.184L540.479 178.639C542.367 163.35 540.29 150.515 534.249 139.757C528.207 128.998 520.089 123.713 509.893 123.713C499.698 123.713 490.258 128.998 481.573 139.757C472.889 150.515 467.791 163.539 465.903 178.639L429.654 488.184C424.934 524.8 412.473 556.132 392.271 581.613C372.07 607.283 349.791 620.118 325.625 620.118C304.102 620.118 286.543 609.736 272.572 588.974C258.601 568.212 251.615 542.543 251.615 512.154C251.615 504.605 251.993 496.488 252.937 488.184L289.187 178.639C291.075 163.35 289.187 150.515 283.334 139.757C277.481 128.998 269.174 123.713 258.601 123.713C248.028 123.713 238.966 128.998 230.281 139.757C221.596 150.515 216.499 163.539 214.611 178.639L178.361 488.184C173.641 524.8 161.18 556.132 140.979 581.613C120.777 607.283 98.4989 620.118 74.3325 620.118C52.9981 620.118 35.2509 609.736 21.2798 588.974C7.30859 568.212 0.322998 542.543 0.322998 512.154C0.322998 504.605 0.700601 496.488 1.6446 488.184L40.7261 159.009C46.7677 108.425 71.5005 68.5992 114.736 39.5322C154.761 13.2963 204.416 0.0839844 263.51 0.0839844H283.145C327.324 0.0839844 365.084 8.01143 396.236 24.0549C431.164 8.20018 470.812 0.0839844 514.991 0.0839844H534.626H534.249Z" fill="#0038ED"/>
<path d="M926.197 259.8C949.42 259.8 968.677 270.936 983.781 293.019C998.885 315.103 1006.44 343.226 1006.44 377.2C1006.44 385.505 1006.06 393.81 1005.12 402.115L996.808 476.859C991.711 516.307 978.117 550.092 956.216 578.216C934.316 606.339 909.96 620.306 882.962 620.306C859.74 620.306 840.482 608.982 825.378 586.521C810.274 564.06 802.722 535.748 802.722 501.773C802.722 493.468 803.1 485.163 804.044 476.859L813.106 402.115C817.826 362.667 831.231 329.07 853.321 301.324C875.41 273.578 899.765 259.8 926.386 259.8H926.197ZM933.183 199.589C908.45 199.589 888.06 191.284 871.634 174.675C855.397 158.065 847.279 137.68 847.279 113.332C847.279 80.1126 860.306 52.7443 886.36 31.2271C908.261 13.2962 931.484 4.23633 956.216 4.23633C980.949 4.23633 1000.77 12.5412 1017.01 29.1509C1033.25 45.7606 1041.37 66.1453 1041.37 90.4937C1041.37 123.713 1028.34 151.081 1002.28 172.599C980.383 190.529 957.349 199.589 933.183 199.589Z" fill="#0038ED"/>
<path d="M1569.44 125.79C1624.38 125.79 1668.56 137.493 1702.16 161.086C1738.04 185.246 1755.97 219.786 1755.97 264.708C1755.97 270.937 1755.59 277.543 1754.65 284.338L1733.69 465.723C1728.97 505.172 1715.57 538.769 1693.48 566.703C1671.39 594.638 1647.03 608.605 1620.41 608.605C1596.62 608.605 1577.18 597.28 1562.07 574.819C1546.97 552.358 1539.42 524.046 1539.42 490.072C1539.42 481.767 1539.8 473.462 1540.74 465.157L1556.79 328.127C1557.17 323.975 1557.54 319.822 1557.54 315.67C1557.54 292.831 1550.94 273.957 1537.91 259.046C1524.88 244.135 1508.27 236.773 1488.25 236.773H1376.48C1366.29 236.773 1356.85 242.058 1348.16 252.817C1339.48 263.576 1334.38 276.599 1332.49 291.699L1312.29 465.157C1307.57 504.605 1294.17 538.391 1272.08 566.514C1249.99 594.637 1225.63 608.605 1199.01 608.605C1175.22 608.605 1155.78 597.469 1140.67 575.008C1125.57 552.547 1118.02 524.424 1118.02 490.449C1118.02 482.144 1118.4 473.84 1119.34 465.535L1152.19 190.908C1157.29 147.307 1186.36 125.602 1239.42 125.602H1569.06L1569.44 125.79Z" fill="#0038ED"/>
<path d="M2007.45 259.8C2030.68 259.8 2050.12 270.936 2065.41 293.019C2080.71 315.103 2088.45 343.226 2088.45 377.2C2088.45 385.505 2087.69 393.81 2086.37 402.115L2052.76 689.765C2046.72 740.916 2021.99 780.741 1978.76 809.242C1938.73 835.478 1888.89 848.69 1829.23 848.69H1634.38C1624.19 848.69 1616.07 843.405 1610.03 832.646C1603.99 821.888 1601.91 808.487 1603.8 792.632C1605.69 777.344 1610.97 764.509 1619.47 753.75C1628.15 742.992 1637.59 737.707 1647.79 737.707H1774.85C1796.75 737.707 1816.58 728.647 1834.32 710.716C1852.07 692.785 1862.45 671.268 1865.85 646.353L1894.55 402.304C1899.27 362.855 1912.68 329.258 1934.77 301.513C1956.85 273.767 1981.21 259.988 2007.83 259.988L2007.45 259.8ZM2014.44 199.589C1989.71 199.589 1969.32 191.284 1953.27 174.675C1937.22 158.065 1929.1 137.68 1929.1 113.332C1929.1 80.1126 1942.13 52.7443 1968.18 31.2271C1990.08 13.2962 2013.12 4.23633 2037.28 4.23633C2061.45 4.23633 2082.41 12.5412 2098.45 29.1509C2114.5 45.7606 2122.62 66.1453 2122.62 90.4937C2122.62 123.713 2109.59 151.081 2083.54 172.599C2061.64 190.529 2038.61 199.589 2014.44 199.589Z" fill="#0038ED"/>
<path d="M2323.31 259.8C2346.54 259.8 2365.79 270.936 2380.9 293.019C2396 315.103 2403.55 343.226 2403.55 377.2C2403.55 385.505 2403.18 393.81 2402.23 402.115L2393.93 476.859C2388.83 516.307 2375.23 550.092 2353.33 578.216C2331.43 606.339 2307.08 620.306 2280.08 620.306C2256.86 620.306 2237.6 608.982 2222.5 586.521C2207.39 564.06 2199.84 535.748 2199.84 501.773C2199.84 493.468 2200.22 485.163 2201.16 476.859L2210.22 402.115C2214.94 362.667 2228.35 329.07 2250.44 301.324C2272.53 273.578 2296.88 259.8 2323.5 259.8H2323.31ZM2330.3 199.589C2305.57 199.589 2285.18 191.284 2268.75 174.675C2252.51 158.065 2244.4 137.68 2244.4 113.332C2244.4 80.1126 2257.42 52.7443 2283.48 31.2271C2305.38 13.2962 2328.6 4.23633 2353.33 4.23633C2378.07 4.23633 2397.89 12.5412 2414.13 29.1509C2430.36 45.7606 2438.48 66.1453 2438.48 90.4937C2438.48 123.713 2425.46 151.081 2399.4 172.599C2377.5 190.529 2354.47 199.589 2330.3 199.589Z" fill="#0038ED"/>
</svg>
