<svg width="336" height="51" viewBox="0 0 336 51" fill="none" xmlns="http://www.w3.org/2000/svg">
<path d="M79.576 35.32L82.36 17.8H84.256L83.872 20.128H84.376L83.704 20.92C83.864 19.88 84.328 19.064 85.096 18.472C85.88 17.864 86.832 17.56 87.952 17.56C89.28 17.56 90.256 18 90.88 18.88C91.504 19.744 91.704 20.928 91.48 22.432L90.856 26.344C90.696 27.352 90.384 28.224 89.92 28.96C89.456 29.68 88.864 30.24 88.144 30.64C87.44 31.04 86.648 31.24 85.768 31.24C84.664 31.24 83.816 30.936 83.224 30.328C82.648 29.72 82.44 28.904 82.6 27.88L82.984 28.672H82.504L82.12 31.36L81.472 35.32H79.576ZM85.432 29.584C86.392 29.584 87.176 29.296 87.784 28.72C88.408 28.144 88.808 27.328 88.984 26.272L89.56 22.528C89.736 21.456 89.6 20.64 89.152 20.08C88.72 19.504 88.032 19.216 87.088 19.216C86.144 19.216 85.352 19.512 84.712 20.104C84.088 20.68 83.688 21.488 83.512 22.528L82.936 26.272C82.76 27.312 82.896 28.128 83.344 28.72C83.808 29.296 84.504 29.584 85.432 29.584ZM101.095 31C99.9586 31 99.1106 30.68 98.5506 30.04C97.9906 29.384 97.7906 28.504 97.9506 27.4L99.8946 15.208H95.8626L96.1506 13.48H102.079L99.8706 27.4C99.7746 27.992 99.8546 28.456 100.111 28.792C100.383 29.112 100.799 29.272 101.359 29.272H105.751L105.463 31H101.095ZM113.253 31.24C111.941 31.24 110.957 30.8 110.301 29.92C109.661 29.04 109.461 27.856 109.701 26.368L110.325 22.456C110.485 21.448 110.797 20.584 111.261 19.864C111.741 19.128 112.333 18.56 113.037 18.16C113.757 17.76 114.557 17.56 115.437 17.56C116.541 17.56 117.381 17.864 117.957 18.472C118.533 19.08 118.741 19.896 118.581 20.92L118.197 20.128H118.653L119.013 17.8H120.909L118.821 31H116.925L117.285 28.672H116.805L117.477 27.88C117.317 28.92 116.845 29.744 116.061 30.352C115.293 30.944 114.357 31.24 113.253 31.24ZM114.117 29.584C115.061 29.584 115.845 29.296 116.469 28.72C117.109 28.128 117.509 27.312 117.669 26.272L118.245 22.528C118.421 21.488 118.285 20.68 117.837 20.104C117.389 19.512 116.693 19.216 115.749 19.216C114.789 19.216 113.997 19.504 113.373 20.08C112.765 20.656 112.373 21.472 112.197 22.528L111.621 26.272C111.461 27.328 111.597 28.144 112.029 28.72C112.461 29.296 113.157 29.584 114.117 29.584ZM124.356 35.32L124.644 33.592H128.652C129.388 33.592 129.964 33.416 130.38 33.064C130.812 32.712 131.084 32.176 131.196 31.456L131.46 29.704L131.868 27.352H131.388L132.012 26.656C131.852 27.712 131.396 28.544 130.644 29.152C129.908 29.744 128.98 30.04 127.86 30.04C126.548 30.04 125.564 29.632 124.908 28.816C124.252 27.984 124.036 26.864 124.26 25.456L125.46 17.8H127.38L126.204 25.24C126.028 26.232 126.164 27.016 126.612 27.592C127.06 28.152 127.732 28.432 128.628 28.432C129.572 28.432 130.364 28.136 131.004 27.544C131.66 26.952 132.068 26.128 132.228 25.072L133.356 17.8H135.276L133.092 31.456C132.916 32.672 132.404 33.616 131.556 34.288C130.724 34.976 129.652 35.32 128.34 35.32H124.356ZM156.473 31.24C155.161 31.24 154.153 30.92 153.449 30.28C152.761 29.64 152.441 28.8 152.489 27.76H154.385C154.417 28.288 154.633 28.72 155.033 29.056C155.449 29.376 156.025 29.536 156.761 29.536H157.937C158.785 29.536 159.457 29.344 159.953 28.96C160.465 28.576 160.769 28.072 160.865 27.448C160.961 26.856 160.841 26.368 160.505 25.984C160.185 25.6 159.681 25.352 158.993 25.24L157.049 24.928C155.833 24.736 154.953 24.352 154.409 23.776C153.865 23.184 153.681 22.352 153.857 21.28C154.033 20.112 154.553 19.2 155.417 18.544C156.281 17.888 157.433 17.56 158.873 17.56H159.809C161.057 17.56 162.009 17.864 162.665 18.472C163.337 19.064 163.673 19.864 163.673 20.872H161.777C161.745 20.392 161.537 20.008 161.153 19.72C160.785 19.416 160.249 19.264 159.545 19.264H158.609C157.761 19.264 157.097 19.44 156.617 19.792C156.153 20.144 155.873 20.64 155.777 21.28C155.681 21.872 155.777 22.32 156.065 22.624C156.353 22.928 156.857 23.136 157.577 23.248L159.497 23.56C160.777 23.752 161.689 24.16 162.233 24.784C162.777 25.392 162.969 26.256 162.809 27.376C162.601 28.56 162.057 29.504 161.177 30.208C160.313 30.896 159.137 31.24 157.649 31.24H156.473ZM171.44 31.24C170.432 31.24 169.584 31.04 168.896 30.64C168.208 30.24 167.72 29.672 167.432 28.936C167.16 28.184 167.104 27.296 167.264 26.272L167.84 22.528C168.016 21.504 168.36 20.624 168.872 19.888C169.4 19.136 170.072 18.56 170.888 18.16C171.704 17.76 172.616 17.56 173.624 17.56C174.648 17.56 175.496 17.76 176.168 18.16C176.856 18.56 177.344 19.136 177.632 19.888C177.92 20.624 177.984 21.504 177.824 22.528L177.224 26.272C177.064 27.296 176.72 28.184 176.192 28.936C175.664 29.672 174.992 30.24 174.176 30.64C173.376 31.04 172.464 31.24 171.44 31.24ZM171.704 29.56C172.696 29.56 173.504 29.28 174.128 28.72C174.752 28.144 175.152 27.328 175.328 26.272L175.904 22.528C176.08 21.472 175.944 20.664 175.496 20.104C175.048 19.528 174.336 19.24 173.36 19.24C172.384 19.24 171.584 19.528 170.96 20.104C170.336 20.664 169.928 21.472 169.736 22.528L169.16 26.272C169 27.328 169.136 28.144 169.568 28.72C170.016 29.28 170.728 29.56 171.704 29.56ZM181.006 31L183.094 17.8H184.99L184.606 20.248H185.086L184.438 20.944C184.614 19.888 185.07 19.064 185.806 18.472C186.558 17.864 187.494 17.56 188.614 17.56C189.926 17.56 190.91 17.976 191.566 18.808C192.222 19.624 192.438 20.736 192.214 22.144L190.798 31H188.902L190.27 22.36C190.43 21.352 190.286 20.568 189.838 20.008C189.406 19.448 188.734 19.168 187.822 19.168C186.894 19.168 186.11 19.464 185.47 20.056C184.83 20.648 184.422 21.472 184.246 22.528L182.902 31H181.006ZM196.357 35.32L196.645 33.592H200.653C201.389 33.592 201.965 33.416 202.381 33.064C202.797 32.712 203.069 32.176 203.197 31.456L203.437 29.92L203.869 27.424H203.437L203.965 26.872C203.805 27.864 203.349 28.656 202.597 29.248C201.861 29.84 200.949 30.136 199.861 30.136C198.517 30.136 197.517 29.696 196.861 28.816C196.205 27.92 195.997 26.728 196.237 25.24L196.669 22.432C196.829 21.44 197.141 20.584 197.605 19.864C198.085 19.128 198.685 18.56 199.405 18.16C200.141 17.76 200.957 17.56 201.853 17.56C202.941 17.56 203.765 17.856 204.325 18.448C204.901 19.024 205.101 19.808 204.925 20.8L204.589 20.248H204.973L205.357 17.8H207.253L205.093 31.456C204.901 32.672 204.389 33.616 203.557 34.288C202.725 34.976 201.653 35.32 200.341 35.32H196.357ZM200.653 28.48C201.597 28.48 202.381 28.192 203.005 27.616C203.645 27.024 204.045 26.208 204.205 25.168L204.613 22.528C204.789 21.488 204.653 20.68 204.205 20.104C203.757 19.512 203.061 19.216 202.117 19.216C201.157 19.216 200.365 19.504 199.741 20.08C199.133 20.656 198.741 21.472 198.565 22.528L198.157 25.168C197.997 26.224 198.133 27.04 198.565 27.616C198.997 28.192 199.693 28.48 200.653 28.48ZM224.178 31L226.266 17.8H228.162L227.778 20.248H228.258L227.61 20.944C227.786 19.888 228.242 19.064 228.978 18.472C229.73 17.864 230.666 17.56 231.786 17.56C233.098 17.56 234.082 17.976 234.738 18.808C235.394 19.624 235.61 20.736 235.386 22.144L233.97 31H232.074L233.442 22.36C233.602 21.352 233.458 20.568 233.01 20.008C232.578 19.448 231.906 19.168 230.994 19.168C230.066 19.168 229.282 19.464 228.642 20.056C228.002 20.648 227.594 21.472 227.418 22.528L226.074 31H224.178ZM243.393 31.24C242.385 31.24 241.537 31.04 240.849 30.64C240.161 30.24 239.673 29.672 239.385 28.936C239.113 28.184 239.057 27.296 239.217 26.272L239.793 22.528C239.969 21.504 240.313 20.624 240.825 19.888C241.353 19.136 242.025 18.56 242.841 18.16C243.657 17.76 244.569 17.56 245.577 17.56C246.601 17.56 247.449 17.76 248.121 18.16C248.809 18.56 249.297 19.136 249.585 19.888C249.873 20.624 249.937 21.504 249.777 22.528L249.177 26.272C249.017 27.296 248.673 28.184 248.145 28.936C247.617 29.672 246.945 30.24 246.129 30.64C245.329 31.04 244.417 31.24 243.393 31.24ZM243.657 29.56C244.649 29.56 245.457 29.28 246.081 28.72C246.705 28.144 247.105 27.328 247.281 26.272L247.857 22.528C248.033 21.472 247.897 20.664 247.449 20.104C247.001 19.528 246.289 19.24 245.313 19.24C244.337 19.24 243.537 19.528 242.913 20.104C242.289 20.664 241.881 21.472 241.689 22.528L241.113 26.272C240.953 27.328 241.089 28.144 241.521 28.72C241.969 29.28 242.681 29.56 243.657 29.56ZM253.704 31L253.656 17.8H255.312L255.192 27.28C255.192 27.632 255.184 28.024 255.168 28.456C255.168 28.888 255.16 29.248 255.144 29.536C255.224 29.248 255.328 28.888 255.456 28.456C255.6 28.024 255.728 27.632 255.84 27.28L258.96 17.8H260.832L260.904 27.28C260.92 27.632 260.928 28.024 260.928 28.456C260.928 28.888 260.92 29.248 260.904 29.536C260.984 29.248 261.088 28.888 261.216 28.456C261.36 28.024 261.488 27.632 261.6 27.28L264.528 17.8H266.184L261.864 31H259.704L259.68 21.808C259.68 21.36 259.68 20.904 259.68 20.44C259.68 19.96 259.68 19.584 259.68 19.312C259.6 19.584 259.48 19.96 259.32 20.44C259.176 20.904 259.032 21.36 258.888 21.808L255.888 31H253.704Z" fill="#0C39D0"/>
<circle cx="25.5" cy="25.5" r="25.5" fill="#0C39D0"/>
<path d="M37.8468 24.1206L19.7731 34.502L19.8194 13.659L37.8468 24.1206Z" fill="#C1DDFE"/>
</svg>
