<svg width="1262" height="376" viewBox="0 0 1262 376" fill="none" xmlns="http://www.w3.org/2000/svg">
<path d="M0 351.714C20.9698 351.371 28.504 332.429 29.6499 323C29.6499 344.257 45.8833 351 54 351.714C34.1796 351.714 29.4981 365.566 29.5495 374.051C29.6157 374.685 29.6499 375.335 29.6499 376C29.589 375.393 29.5537 374.74 29.5495 374.051C28.0233 359.439 9.47237 353.083 0 351.714Z" fill="#0C39D0"/>
<path d="M202.998 52.5526C241.443 51.9251 255.255 17.2561 257.356 0C257.356 38.9046 287.117 51.2453 301.998 52.5526C265.661 52.5526 257.078 77.9046 257.172 93.4337C257.293 94.5939 257.356 95.7825 257.356 97C257.244 95.8884 257.18 94.6934 257.172 93.4337C254.374 66.6906 220.364 55.0584 202.998 52.5526Z" fill="#0C39D0"/>
<path d="M318 181.34C340.135 180.977 348.088 160.962 349.297 151C349.297 173.46 366.432 180.585 375 181.34C354.078 181.34 349.137 195.976 349.191 204.941C349.261 205.611 349.297 206.297 349.297 207C349.233 206.358 349.196 205.668 349.191 204.941C347.58 189.502 327.999 182.786 318 181.34Z" fill="#0C39D0"/>
<path d="M1196 90.1294C1211.53 89.8771 1217.11 75.938 1217.96 69C1217.96 84.642 1229.99 89.6038 1236 90.1294C1221.32 90.1294 1217.85 100.322 1217.89 106.566C1217.94 107.033 1217.96 107.51 1217.96 108C1217.92 107.553 1217.89 107.073 1217.89 106.566C1216.76 95.8137 1203.02 91.1369 1196 90.1294Z" fill="#0C39D0"/>
<path d="M1222 279.129C1237.53 278.877 1243.11 264.938 1243.96 258C1243.96 273.642 1255.99 278.604 1262 279.129C1247.32 279.129 1243.85 289.322 1243.89 295.566C1243.94 296.033 1243.96 296.51 1243.96 297C1243.92 296.553 1243.89 296.073 1243.89 295.566C1242.76 284.814 1229.02 280.137 1222 279.129Z" fill="#0C39D0"/>
</svg>
